<svg width="257" height="309" viewBox="0 0 257 309" fill="none" xmlns="http://www.w3.org/2000/svg">
<g filter="url(#filter0_i_1_37050)">
<circle cx="127.014" cy="127.484" r="100.507" fill="url(#paint0_linear_1_37050)"/>
</g>
<circle cx="127.014" cy="127.484" r="99.7782" stroke="url(#paint1_linear_1_37050)" stroke-width="1.45662"/>
<g filter="url(#filter1_i_1_37050)">
<circle cx="127" cy="127.097" r="73" fill="url(#paint2_linear_1_37050)"/>
</g>
<circle cx="127" cy="127.097" r="72.5" stroke="url(#paint3_linear_1_37050)"/>
<g filter="url(#filter2_i_1_37050)">
<circle cx="127" cy="127.097" r="43" fill="url(#paint4_linear_1_37050)"/>
</g>
<circle cx="127" cy="127.097" r="42.2717" stroke="url(#paint5_linear_1_37050)" stroke-width="1.45662"/>
<g filter="url(#filter3_f_1_37050)">
<rect x="102.668" y="202.817" width="49.28" height="49.28" rx="24.64" fill="#0CFF85" fill-opacity="0.1"/>
<path d="M126.267 227.994C126.587 227.846 126.922 227.737 127.308 227.737C127.693 227.737 128.029 227.846 128.349 227.994C128.643 228.131 128.976 228.328 129.351 228.55L130.535 229.25C130.925 229.481 131.27 229.685 131.542 229.886C131.838 230.104 132.099 230.354 132.292 230.7C132.484 231.045 132.56 231.4 132.595 231.769C132.628 232.112 132.628 232.524 132.628 232.997V232.998V234.237V234.237C132.628 234.71 132.628 235.122 132.595 235.466C132.56 235.835 132.484 236.19 132.292 236.534C132.099 236.881 131.838 237.131 131.542 237.349C131.27 237.55 130.925 237.754 130.535 237.984L129.351 238.685C128.976 238.907 128.643 239.104 128.349 239.241C128.029 239.389 127.693 239.497 127.308 239.497C126.922 239.497 126.587 239.389 126.267 239.241C125.973 239.104 125.64 238.907 125.265 238.685L125.265 238.685L124.08 237.984C123.69 237.754 123.346 237.55 123.073 237.349C122.777 237.131 122.516 236.881 122.323 236.534C122.132 236.19 122.055 235.835 122.02 235.466C121.988 235.122 121.988 234.71 121.988 234.237V234.237V232.998V232.997C121.988 232.524 121.988 232.112 122.02 231.769C122.055 231.4 122.132 231.045 122.323 230.7C122.516 230.354 122.777 230.104 123.073 229.886C123.346 229.685 123.69 229.481 124.08 229.25L124.113 229.231L125.233 228.568L125.265 228.55C125.64 228.328 125.973 228.131 126.267 227.994Z" fill="#0CFF85"/>
<path d="M134.757 215.463C135.363 215.545 136.076 215.781 136.573 216.463C136.867 216.866 136.978 217.319 137.028 217.787C137.136 218.796 137.127 219.88 137.044 220.891C136.959 221.925 136.461 222.758 135.596 223.338C135.182 223.615 134.697 223.842 134.369 224.013L130.656 225.95C129.949 226.318 129.37 226.621 128.868 226.827C128.343 227.043 127.85 227.177 127.308 227.177C126.766 227.177 126.272 227.043 125.747 226.827C125.246 226.621 124.666 226.318 123.96 225.95L120.246 224.013C119.919 223.842 119.434 223.615 119.02 223.338C118.155 222.758 117.657 221.925 117.572 220.891C117.489 219.88 117.479 218.796 117.588 217.787C117.638 217.319 117.749 216.866 118.043 216.463C118.54 215.781 119.253 215.545 119.859 215.463C120.422 215.387 121.075 215.429 121.437 215.429H125.298C125.719 215.429 125.93 215.429 126.061 215.56C126.191 215.691 126.191 215.902 126.191 216.325V219.617C126.191 220.236 126.691 220.737 127.308 220.737C127.924 220.737 128.424 220.236 128.424 219.617V216.325C128.424 215.902 128.424 215.691 128.555 215.56C128.686 215.429 128.896 215.429 129.317 215.429H133.178C133.54 215.429 134.193 215.387 134.757 215.463Z" fill="#0CFF85"/>
</g>
<g filter="url(#filter4_i_1_37050)">
<rect x="102.668" y="202.817" width="49.28" height="49.28" rx="24.64" fill="#121212"/>
<path d="M134.028 238.657V234.177H120.588V238.657" stroke="#0CFF85" stroke-width="1.68" stroke-linejoin="round"/>
<path d="M118.348 238.657H136.268" stroke="#0CFF85" stroke-width="1.68" stroke-linejoin="round"/>
<path d="M134.444 216.262L121.148 220.16L123.51 234.084C123.519 234.138 123.566 234.177 123.62 234.177H130.987C131.041 234.177 131.087 234.139 131.097 234.087L134.586 216.391C134.602 216.309 134.525 216.238 134.444 216.262Z" stroke="#0CFF85" stroke-width="1.68"/>
</g>
<rect x="0.667316" y="97.7556" width="48.16" height="48.16" rx="12.88" transform="rotate(-4.35532 0.667316 97.7556)" fill="url(#paint6_radial_1_37050)"/>
<rect x="0.667316" y="97.7556" width="48.16" height="48.16" rx="12.88" transform="rotate(-4.35532 0.667316 97.7556)" stroke="url(#paint7_linear_1_37050)" stroke-width="1.12"/>
<path d="M24.8742 130.182L19.7113 127.45C17.5872 126.325 16.5251 125.763 16.2373 124.729C15.9495 123.694 16.5594 122.63 17.7792 120.504L22.1531 112.877C23.6886 110.2 24.4563 108.861 25.6559 108.77C26.8555 108.679 27.8171 109.885 29.7403 112.299L35.2188 119.175C36.7466 121.093 37.5106 122.052 37.3828 123.118C37.255 124.184 36.2903 124.901 34.3609 126.334L29.6713 129.817C28.5589 130.643 28.0026 131.056 27.357 131.105C26.7113 131.154 26.099 130.83 24.8742 130.182Z" stroke="white" stroke-width="1.68" stroke-linecap="round" stroke-linejoin="round"/>
<path d="M25.6559 108.77L28.9101 122.001M36.8609 123.158L28.9101 122.001M27.357 131.105L28.9101 122.001M16.7591 124.689L28.9101 122.001" stroke="white" stroke-width="1.68" stroke-linecap="round" stroke-linejoin="round"/>
<rect x="72.9298" y="90.0352" width="48.16" height="48.16" rx="12.88" transform="rotate(16.4096 72.9298 90.0352)" fill="url(#paint8_radial_1_37050)"/>
<rect x="72.9298" y="90.0352" width="48.16" height="48.16" rx="12.88" transform="rotate(16.4096 72.9298 90.0352)" stroke="url(#paint9_linear_1_37050)" stroke-width="1.12"/>
<path d="M90.7562 113.954L92.8223 112.828C95.1487 111.56 97.721 111.507 100.247 112.119C101.229 112.356 101.721 112.475 101.995 112.978C102.269 113.481 102.102 113.958 101.77 114.913C100.914 117.367 99.4762 119.5 97.1498 120.768L95.0837 121.894C93.3822 122.821 92.8984 123.085 92.7545 124.592C92.706 125.761 92.659 126.893 91.6339 127.452C90.3904 128.13 89.5142 127.872 88.8365 126.628L83.3916 116.638C82.7139 115.394 82.9719 114.518 84.2154 113.84C85.2406 113.281 86.2176 113.856 87.2264 114.449C88.571 115.145 89.0547 114.881 90.7562 113.954Z" stroke="white" stroke-width="1.68" stroke-linejoin="round"/>
<path d="M96.1757 116.146L96.1853 116.149" stroke="white" stroke-width="2.24" stroke-linecap="round" stroke-linejoin="round"/>
<path d="M76.0137 127.138L82.9676 123.348" stroke="white" stroke-width="1.68" stroke-linecap="round"/>
<path d="M82.46 129.036L85.2415 127.52" stroke="white" stroke-width="1.68" stroke-linecap="round"/>
<path d="M77.9121 120.691L80.6937 119.176" stroke="white" stroke-width="1.68" stroke-linecap="round"/>
<rect x="150.681" y="86.5823" width="48.16" height="48.16" rx="12.88" transform="rotate(33.3678 150.681 86.5823)" fill="url(#paint10_radial_1_37050)"/>
<rect x="150.681" y="86.5823" width="48.16" height="48.16" rx="12.88" transform="rotate(33.3678 150.681 86.5823)" stroke="url(#paint11_linear_1_37050)" stroke-width="1.12"/>
<path d="M162.794 114.005C162.578 114.333 162.314 114.611 162.017 114.836L166.853 118.021L163.669 122.857C164.03 122.946 164.382 123.097 164.71 123.313C166.26 124.334 166.689 126.418 165.668 127.968C164.648 129.517 162.564 129.946 161.014 128.926C160.686 128.709 160.408 128.445 160.183 128.149L156.998 132.985L152.163 129.801C152.459 129.576 152.722 129.299 152.938 128.971C153.959 127.421 153.53 125.338 151.98 124.317C150.43 123.296 148.346 123.725 147.326 125.275C147.11 125.603 146.959 125.954 146.87 126.314L142.034 123.13L145.219 118.295C145.443 118.59 145.721 118.854 146.048 119.069C147.598 120.09 149.682 119.661 150.702 118.111C151.723 116.562 151.294 114.478 149.744 113.457C149.417 113.241 149.065 113.09 148.705 113.001L151.89 108.166L156.725 111.351C156.814 110.99 156.966 110.637 157.182 110.309C158.202 108.759 160.286 108.33 161.836 109.351C163.386 110.371 163.815 112.455 162.794 114.005Z" stroke="white" stroke-width="1.68"/>
<rect x="195.503" y="104.516" width="48.16" height="48.16" rx="12.88" transform="rotate(-18.074 195.503 104.516)" fill="url(#paint12_radial_1_37050)"/>
<rect x="195.503" y="104.516" width="48.16" height="48.16" rx="12.88" transform="rotate(-18.074 195.503 104.516)" stroke="url(#paint13_linear_1_37050)" stroke-width="1.12"/>
<path d="M218.76 123.434L217.925 123.344C217.894 123.627 218.009 123.907 218.231 124.086C218.452 124.266 218.749 124.321 219.02 124.233L218.76 123.434ZM224.083 121.697L224.921 121.637C224.903 121.379 224.767 121.144 224.553 121C224.338 120.855 224.069 120.818 223.823 120.898L224.083 121.697ZM224.734 130.909L223.896 130.969L224.109 133.994L225.483 131.29L224.734 130.909ZM232.624 115.375L233.373 115.756C233.526 115.453 233.483 115.087 233.262 114.829C233.041 114.571 232.686 114.471 232.363 114.577L232.624 115.375ZM229.126 108.269L229.95 108.437L230.238 107.023L228.866 107.471L229.126 108.269ZM220.076 111.223L219.816 110.424L219.299 110.593L219.241 111.133L220.076 111.223ZM227.326 117.104L226.503 116.936C226.443 117.229 226.544 117.532 226.767 117.731C226.99 117.93 227.302 117.995 227.587 117.903L227.326 117.104ZM218.76 123.434L219.02 124.233L224.344 122.495L224.083 121.697L223.823 120.898L218.499 122.635L218.76 123.434ZM224.083 121.697L223.246 121.756L223.896 130.969L224.734 130.909L225.572 130.85L224.921 121.637L224.083 121.697ZM224.734 130.909L225.483 131.29L233.373 115.756L232.624 115.375L231.875 114.995L223.985 130.529L224.734 130.909ZM229.126 108.269L228.866 107.471L219.816 110.424L220.076 111.223L220.337 112.022L229.387 109.068L229.126 108.269ZM220.076 111.223L219.241 111.133L217.925 123.344L218.76 123.434L219.595 123.524L220.911 111.313L220.076 111.223ZM229.126 108.269L228.303 108.102L226.503 116.936L227.326 117.104L228.149 117.272L229.95 108.437L229.126 108.269ZM227.326 117.104L227.587 117.903L232.884 116.174L232.624 115.375L232.363 114.577L227.065 116.305L227.326 117.104Z" fill="white"/>
<line x1="33.088" y1="41.5371" x2="33.088" y2="54.9771" stroke="url(#paint14_linear_1_37050)" stroke-width="0.84"/>
<line x1="27.627" y1="47.8373" x2="38.547" y2="47.8373" stroke="url(#paint15_linear_1_37050)" stroke-width="0.84"/>
<line x1="236.928" y1="153.537" x2="236.928" y2="166.977" stroke="url(#paint16_linear_1_37050)" stroke-width="0.84"/>
<line x1="231.467" y1="159.837" x2="242.387" y2="159.837" stroke="url(#paint17_linear_1_37050)" stroke-width="0.84"/>
<line x1="72.2872" y1="225.217" x2="72.2872" y2="238.657" stroke="url(#paint18_linear_1_37050)" stroke-width="0.84"/>
<line x1="66.8281" y1="231.517" x2="77.7481" y2="231.517" stroke="url(#paint19_linear_1_37050)" stroke-width="0.84"/>
<line x1="121.568" y1="146.817" x2="121.568" y2="160.257" stroke="url(#paint20_linear_1_37050)" stroke-width="0.84"/>
<line x1="116.107" y1="153.117" x2="127.027" y2="153.117" stroke="url(#paint21_linear_1_37050)" stroke-width="0.84"/>
<line x1="103.649" y1="54.9771" x2="103.649" y2="68.4171" stroke="url(#paint22_linear_1_37050)" stroke-width="0.84"/>
<line x1="98.188" y1="61.2773" x2="109.108" y2="61.2773" stroke="url(#paint23_linear_1_37050)" stroke-width="0.84"/>
<line x1="170.848" y1="-1.83588e-08" x2="170.848" y2="13.4885" stroke="url(#paint24_linear_1_37050)" stroke-width="0.84"/>
<line x1="165.387" y1="6.32438" x2="176.307" y2="6.32438" stroke="url(#paint25_linear_1_37050)" stroke-width="0.84"/>
<defs>
<filter id="filter0_i_1_37050" x="26.5077" y="26.9771" width="209.753" height="209.753" filterUnits="userSpaceOnUse" color-interpolation-filters="sRGB">
<feFlood flood-opacity="0" result="BackgroundImageFix"/>
<feBlend mode="normal" in="SourceGraphic" in2="BackgroundImageFix" result="shape"/>
<feColorMatrix in="SourceAlpha" type="matrix" values="0 0 0 0 0 0 0 0 0 0 0 0 0 0 0 0 0 0 127 0" result="hardAlpha"/>
<feOffset dx="8.7397" dy="8.7397"/>
<feGaussianBlur stdDeviation="11.6529"/>
<feComposite in2="hardAlpha" operator="arithmetic" k2="-1" k3="1"/>
<feColorMatrix type="matrix" values="0 0 0 0 1 0 0 0 0 1 0 0 0 0 1 0 0 0 0.03 0"/>
<feBlend mode="normal" in2="shape" result="effect1_innerShadow_1_37050"/>
</filter>
<filter id="filter1_i_1_37050" x="53.9999" y="54.0972" width="154.74" height="154.74" filterUnits="userSpaceOnUse" color-interpolation-filters="sRGB">
<feFlood flood-opacity="0" result="BackgroundImageFix"/>
<feBlend mode="normal" in="SourceGraphic" in2="BackgroundImageFix" result="shape"/>
<feColorMatrix in="SourceAlpha" type="matrix" values="0 0 0 0 0 0 0 0 0 0 0 0 0 0 0 0 0 0 127 0" result="hardAlpha"/>
<feOffset dx="8.7397" dy="8.7397"/>
<feGaussianBlur stdDeviation="11.6529"/>
<feComposite in2="hardAlpha" operator="arithmetic" k2="-1" k3="1"/>
<feColorMatrix type="matrix" values="0 0 0 0 1 0 0 0 0 1 0 0 0 0 1 0 0 0 0.03 0"/>
<feBlend mode="normal" in2="shape" result="effect1_innerShadow_1_37050"/>
</filter>
<filter id="filter2_i_1_37050" x="83.9999" y="84.0972" width="94.7397" height="94.7397" filterUnits="userSpaceOnUse" color-interpolation-filters="sRGB">
<feFlood flood-opacity="0" result="BackgroundImageFix"/>
<feBlend mode="normal" in="SourceGraphic" in2="BackgroundImageFix" result="shape"/>
<feColorMatrix in="SourceAlpha" type="matrix" values="0 0 0 0 0 0 0 0 0 0 0 0 0 0 0 0 0 0 127 0" result="hardAlpha"/>
<feOffset dx="8.7397" dy="8.7397"/>
<feGaussianBlur stdDeviation="11.6529"/>
<feComposite in2="hardAlpha" operator="arithmetic" k2="-1" k3="1"/>
<feColorMatrix type="matrix" values="0 0 0 0 1 0 0 0 0 1 0 0 0 0 1 0 0 0 0.03 0"/>
<feBlend mode="normal" in2="shape" result="effect1_innerShadow_1_37050"/>
</filter>
<filter id="filter3_f_1_37050" x="46.6678" y="146.817" width="161.28" height="161.28" filterUnits="userSpaceOnUse" color-interpolation-filters="sRGB">
<feFlood flood-opacity="0" result="BackgroundImageFix"/>
<feBlend mode="normal" in="SourceGraphic" in2="BackgroundImageFix" result="shape"/>
<feGaussianBlur stdDeviation="28" result="effect1_foregroundBlur_1_37050"/>
</filter>
<filter id="filter4_i_1_37050" x="102.668" y="202.817" width="49.28" height="49.28" filterUnits="userSpaceOnUse" color-interpolation-filters="sRGB">
<feFlood flood-opacity="0" result="BackgroundImageFix"/>
<feBlend mode="normal" in="SourceGraphic" in2="BackgroundImageFix" result="shape"/>
<feColorMatrix in="SourceAlpha" type="matrix" values="0 0 0 0 0 0 0 0 0 0 0 0 0 0 0 0 0 0 127 0" result="hardAlpha"/>
<feOffset/>
<feGaussianBlur stdDeviation="3.36"/>
<feComposite in2="hardAlpha" operator="arithmetic" k2="-1" k3="1"/>
<feColorMatrix type="matrix" values="0 0 0 0 1 0 0 0 0 1 0 0 0 0 1 0 0 0 0.1 0"/>
<feBlend mode="normal" in2="shape" result="effect1_innerShadow_1_37050"/>
</filter>
<linearGradient id="paint0_linear_1_37050" x1="127.014" y1="26.9771" x2="127.014" y2="227.99" gradientUnits="userSpaceOnUse">
<stop stop-opacity="0"/>
<stop offset="1" stop-color="#151515"/>
</linearGradient>
<linearGradient id="paint1_linear_1_37050" x1="127.014" y1="26.9771" x2="127.014" y2="227.99" gradientUnits="userSpaceOnUse">
<stop/>
<stop offset="1" stop-color="#1F1F1F"/>
</linearGradient>
<linearGradient id="paint2_linear_1_37050" x1="127" y1="54.0972" x2="127" y2="200.097" gradientUnits="userSpaceOnUse">
<stop stop-opacity="0"/>
<stop offset="1" stop-color="#151515"/>
</linearGradient>
<linearGradient id="paint3_linear_1_37050" x1="127" y1="54.0972" x2="127" y2="200.097" gradientUnits="userSpaceOnUse">
<stop/>
<stop offset="1" stop-color="#1F1F1F"/>
</linearGradient>
<linearGradient id="paint4_linear_1_37050" x1="127" y1="84.0972" x2="127" y2="170.097" gradientUnits="userSpaceOnUse">
<stop stop-opacity="0"/>
<stop offset="1" stop-color="#151515"/>
</linearGradient>
<linearGradient id="paint5_linear_1_37050" x1="127" y1="84.0972" x2="127" y2="170.097" gradientUnits="userSpaceOnUse">
<stop/>
<stop offset="1" stop-color="#1F1F1F"/>
</linearGradient>
<radialGradient id="paint6_radial_1_37050" cx="0" cy="0" r="1" gradientUnits="userSpaceOnUse" gradientTransform="translate(3.9864 100.04) rotate(46.1535) scale(59.0129)">
<stop stop-color="#272727"/>
<stop offset="1"/>
</radialGradient>
<linearGradient id="paint7_linear_1_37050" x1="4.54641" y1="100.04" x2="44.3064" y2="146.52" gradientUnits="userSpaceOnUse">
<stop/>
<stop offset="1" stop-color="#2D2D2D"/>
</linearGradient>
<radialGradient id="paint8_radial_1_37050" cx="0" cy="0" r="1" gradientUnits="userSpaceOnUse" gradientTransform="translate(76.4708 92.1398) rotate(46.1535) scale(59.0129)">
<stop stop-color="#272727"/>
<stop offset="1"/>
</radialGradient>
<linearGradient id="paint9_linear_1_37050" x1="77.0308" y1="92.1398" x2="116.791" y2="138.62" gradientUnits="userSpaceOnUse">
<stop/>
<stop offset="1" stop-color="#2D2D2D"/>
</linearGradient>
<radialGradient id="paint10_radial_1_37050" cx="0" cy="0" r="1" gradientUnits="userSpaceOnUse" gradientTransform="translate(154.441 88.6066) rotate(46.1535) scale(59.0129)">
<stop stop-color="#272727"/>
<stop offset="1"/>
</radialGradient>
<linearGradient id="paint11_linear_1_37050" x1="155.001" y1="88.6066" x2="194.761" y2="135.087" gradientUnits="userSpaceOnUse">
<stop/>
<stop offset="1" stop-color="#2D2D2D"/>
</linearGradient>
<radialGradient id="paint12_radial_1_37050" cx="0" cy="0" r="1" gradientUnits="userSpaceOnUse" gradientTransform="translate(198.717 106.957) rotate(46.1535) scale(59.0129)">
<stop stop-color="#272727"/>
<stop offset="1"/>
</radialGradient>
<linearGradient id="paint13_linear_1_37050" x1="199.277" y1="106.957" x2="239.037" y2="153.437" gradientUnits="userSpaceOnUse">
<stop/>
<stop offset="1" stop-color="#2D2D2D"/>
</linearGradient>
<linearGradient id="paint14_linear_1_37050" x1="32.168" y1="41.5371" x2="32.168" y2="54.9771" gradientUnits="userSpaceOnUse">
<stop/>
<stop offset="0.5" stop-color="white"/>
<stop offset="1"/>
</linearGradient>
<linearGradient id="paint15_linear_1_37050" x1="27.627" y1="48.7573" x2="38.547" y2="48.7573" gradientUnits="userSpaceOnUse">
<stop/>
<stop offset="0.5" stop-color="white"/>
<stop offset="1"/>
</linearGradient>
<linearGradient id="paint16_linear_1_37050" x1="236.008" y1="153.537" x2="236.008" y2="166.977" gradientUnits="userSpaceOnUse">
<stop/>
<stop offset="0.5" stop-color="#0CFF85"/>
<stop offset="1"/>
</linearGradient>
<linearGradient id="paint17_linear_1_37050" x1="231.467" y1="160.757" x2="242.387" y2="160.757" gradientUnits="userSpaceOnUse">
<stop/>
<stop offset="0.5" stop-color="#0CFF85"/>
<stop offset="1"/>
</linearGradient>
<linearGradient id="paint18_linear_1_37050" x1="71.3672" y1="225.217" x2="71.3672" y2="238.657" gradientUnits="userSpaceOnUse">
<stop/>
<stop offset="0.5" stop-color="white"/>
<stop offset="1"/>
</linearGradient>
<linearGradient id="paint19_linear_1_37050" x1="66.8281" y1="232.437" x2="77.7481" y2="232.437" gradientUnits="userSpaceOnUse">
<stop/>
<stop offset="0.5" stop-color="white"/>
<stop offset="1"/>
</linearGradient>
<linearGradient id="paint20_linear_1_37050" x1="120.648" y1="146.817" x2="120.648" y2="160.257" gradientUnits="userSpaceOnUse">
<stop/>
<stop offset="0.5" stop-color="#0CFF85"/>
<stop offset="1"/>
</linearGradient>
<linearGradient id="paint21_linear_1_37050" x1="116.107" y1="154.037" x2="127.027" y2="154.037" gradientUnits="userSpaceOnUse">
<stop/>
<stop offset="0.5" stop-color="#0CFF85"/>
<stop offset="1"/>
</linearGradient>
<linearGradient id="paint22_linear_1_37050" x1="102.729" y1="54.9771" x2="102.729" y2="68.4171" gradientUnits="userSpaceOnUse">
<stop/>
<stop offset="0.5" stop-color="#0CFF85"/>
<stop offset="1"/>
</linearGradient>
<linearGradient id="paint23_linear_1_37050" x1="98.188" y1="62.1973" x2="109.108" y2="62.1973" gradientUnits="userSpaceOnUse">
<stop/>
<stop offset="0.5" stop-color="#0CFF85"/>
<stop offset="1"/>
</linearGradient>
<linearGradient id="paint24_linear_1_37050" x1="169.928" y1="2.18557e-08" x2="169.928" y2="13.4885" gradientUnits="userSpaceOnUse">
<stop/>
<stop offset="0.5" stop-color="white"/>
<stop offset="1"/>
</linearGradient>
<linearGradient id="paint25_linear_1_37050" x1="165.387" y1="7.24438" x2="176.307" y2="7.24438" gradientUnits="userSpaceOnUse">
<stop/>
<stop offset="0.5" stop-color="white"/>
<stop offset="1"/>
</linearGradient>
</defs>
</svg>
