<svg width="517" height="508" viewBox="0 0 517 508" fill="none" xmlns="http://www.w3.org/2000/svg">
<g filter="url(#filter0_i_1_37621)">
<circle cx="260.744" cy="260.784" r="213.744" fill="url(#paint0_linear_1_37621)" fill-opacity="0.04"/>
<circle cx="260.744" cy="260.784" r="213.744" fill="url(#paint1_radial_1_37621)" fill-opacity="0.5"/>
</g>
<circle cx="260.744" cy="260.784" r="212.744" stroke="url(#paint2_linear_1_37621)" stroke-opacity="0.1" stroke-width="2"/>
<g filter="url(#filter1_i_1_37621)">
<circle cx="260.746" cy="260.784" r="180.654" fill="url(#paint3_linear_1_37621)" fill-opacity="0.04"/>
</g>
<circle cx="260.746" cy="260.784" r="179.654" stroke="url(#paint4_linear_1_37621)" stroke-opacity="0.1" stroke-width="2"/>
<g filter="url(#filter2_i_1_37621)">
<circle cx="260.743" cy="260.784" r="144.881" fill="url(#paint5_linear_1_37621)" fill-opacity="0.04"/>
</g>
<circle cx="260.743" cy="260.784" r="143.881" stroke="url(#paint6_linear_1_37621)" stroke-opacity="0.1" stroke-width="2"/>
<g filter="url(#filter3_di_1_37621)">
<circle cx="258" cy="267.04" r="104.186" fill="#1B1B1B"/>
<circle cx="258" cy="267.04" r="102.326" stroke="#0CFF85" stroke-width="3.72093"/>
</g>
<path d="M211.234 240.249V237.749L219.115 226.921H211.568V224.398H222.642V226.899L214.694 237.726H222.91V240.249H211.234ZM225.302 240.249V224.398H228.204V231.632L234.411 224.398H237.849L231.91 231.364L238.229 240.249H234.902L229.99 233.351L228.204 235.382V240.249H225.302ZM251.561 240.606C250.252 240.606 249.121 240.376 248.168 239.914C247.215 239.453 246.464 238.813 245.913 237.994C245.377 237.161 245.065 236.193 244.975 235.092L247.922 234.913C248.056 235.94 248.428 236.729 249.039 237.28C249.649 237.831 250.505 238.106 251.606 238.106C252.544 238.106 253.266 237.935 253.772 237.593C254.293 237.235 254.553 236.722 254.553 236.052C254.553 235.65 254.456 235.293 254.263 234.98C254.069 234.668 253.697 234.378 253.147 234.11C252.596 233.842 251.777 233.581 250.691 233.328C249.381 233.031 248.332 232.696 247.543 232.324C246.754 231.937 246.181 231.46 245.824 230.895C245.467 230.314 245.288 229.593 245.288 228.729C245.288 227.806 245.519 226.995 245.98 226.296C246.441 225.581 247.096 225.031 247.945 224.644C248.793 224.242 249.813 224.041 251.003 224.041C252.268 224.041 253.34 224.272 254.218 224.733C255.111 225.179 255.803 225.797 256.294 226.586C256.801 227.375 257.113 228.283 257.232 229.31L254.308 229.444C254.203 228.58 253.868 227.881 253.303 227.345C252.737 226.809 251.956 226.541 250.959 226.541C250.125 226.541 249.463 226.735 248.972 227.122C248.495 227.509 248.257 228.007 248.257 228.618C248.257 229.049 248.354 229.406 248.548 229.689C248.756 229.972 249.121 230.218 249.641 230.426C250.162 230.634 250.892 230.843 251.829 231.051C253.243 231.364 254.367 231.751 255.201 232.212C256.034 232.659 256.629 233.187 256.987 233.797C257.344 234.407 257.522 235.107 257.522 235.896C257.522 236.863 257.269 237.704 256.763 238.419C256.272 239.118 255.58 239.661 254.687 240.048C253.809 240.42 252.767 240.606 251.561 240.606ZM265.643 240.517C264.453 240.517 263.418 240.264 262.54 239.758C261.662 239.237 260.977 238.508 260.486 237.57C260.01 236.633 259.772 235.539 259.772 234.288C259.772 233.038 260.01 231.944 260.486 231.006C260.977 230.069 261.662 229.347 262.54 228.841C263.418 228.32 264.453 228.06 265.643 228.06C267.162 228.06 268.419 228.454 269.417 229.243C270.429 230.032 271.024 231.133 271.203 232.547L268.256 232.703C268.137 231.944 267.839 231.371 267.363 230.984C266.901 230.582 266.328 230.381 265.643 230.381C264.721 230.381 264.006 230.724 263.5 231.408C262.994 232.093 262.741 233.053 262.741 234.288C262.741 235.524 262.994 236.484 263.5 237.168C264.006 237.853 264.721 238.195 265.643 238.195C266.343 238.195 266.923 237.994 267.385 237.593C267.861 237.191 268.151 236.566 268.256 235.717L271.203 235.851C271.039 237.28 270.451 238.419 269.439 239.267C268.442 240.1 267.177 240.517 265.643 240.517ZM278.376 240.517C277.2 240.517 276.166 240.264 275.273 239.758C274.395 239.237 273.71 238.515 273.219 237.593C272.743 236.655 272.504 235.553 272.504 234.288C272.504 233.023 272.743 231.929 273.219 231.006C273.71 230.069 274.395 229.347 275.273 228.841C276.166 228.32 277.2 228.06 278.376 228.06C279.552 228.06 280.579 228.32 281.457 228.841C282.335 229.347 283.012 230.069 283.489 231.006C283.98 231.929 284.225 233.023 284.225 234.288C284.225 235.553 283.98 236.655 283.489 237.593C283.012 238.515 282.335 239.237 281.457 239.758C280.579 240.264 279.552 240.517 278.376 240.517ZM278.376 238.195C279.284 238.195 279.991 237.853 280.497 237.168C281.003 236.484 281.256 235.524 281.256 234.288C281.256 233.053 281.003 232.093 280.497 231.408C279.991 230.724 279.284 230.381 278.376 230.381C277.453 230.381 276.739 230.724 276.233 231.408C275.727 232.093 275.474 233.053 275.474 234.288C275.474 235.524 275.727 236.484 276.233 237.168C276.739 237.853 277.453 238.195 278.376 238.195ZM286.431 240.249V228.327H289.11L289.177 230.649C289.415 229.846 289.764 229.258 290.226 228.886C290.687 228.513 291.29 228.327 292.034 228.327H293.128V230.783H292.012C291.104 230.783 290.419 230.992 289.958 231.408C289.511 231.81 289.288 232.465 289.288 233.373V240.249H286.431ZM299.829 240.517C298.638 240.517 297.604 240.264 296.726 239.758C295.848 239.237 295.17 238.508 294.694 237.57C294.218 236.633 293.98 235.539 293.98 234.288C293.98 233.038 294.218 231.944 294.694 231.006C295.17 230.069 295.84 229.347 296.703 228.841C297.582 228.32 298.601 228.06 299.762 228.06C300.893 228.06 301.883 228.313 302.731 228.819C303.58 229.325 304.235 230.054 304.696 231.006C305.172 231.959 305.41 233.105 305.41 234.445V235.092H296.949C296.994 236.134 297.276 236.923 297.797 237.459C298.318 237.98 299.003 238.24 299.851 238.24C301.146 238.24 301.972 237.689 302.329 236.588L305.254 236.766C304.927 237.927 304.279 238.843 303.312 239.513C302.359 240.182 301.198 240.517 299.829 240.517ZM296.949 233.172H302.463C302.389 232.205 302.106 231.49 301.615 231.029C301.139 230.553 300.521 230.314 299.762 230.314C298.988 230.314 298.356 230.56 297.864 231.051C297.373 231.542 297.068 232.249 296.949 233.172ZM214.804 262.249V246.398H220.944C222.789 246.398 224.233 246.845 225.275 247.738C226.332 248.631 226.86 249.866 226.86 251.444C226.86 253.036 226.332 254.286 225.275 255.194C224.233 256.087 222.789 256.534 220.944 256.534H217.707V262.249H214.804ZM217.707 254.011H220.81C221.792 254.011 222.544 253.795 223.065 253.364C223.6 252.932 223.868 252.292 223.868 251.444C223.868 250.61 223.6 249.985 223.065 249.568C222.544 249.137 221.792 248.921 220.81 248.921H217.707V254.011ZM229.254 262.249V250.327H231.933L232 252.649C232.238 251.846 232.588 251.258 233.049 250.886C233.511 250.513 234.113 250.327 234.858 250.327H235.952V252.783H234.835C233.927 252.783 233.243 252.992 232.781 253.408C232.335 253.81 232.112 254.465 232.112 255.373V262.249H229.254ZM242.675 262.517C241.499 262.517 240.465 262.264 239.571 261.758C238.693 261.237 238.009 260.515 237.518 259.593C237.041 258.655 236.803 257.553 236.803 256.288C236.803 255.023 237.041 253.929 237.518 253.006C238.009 252.069 238.693 251.347 239.571 250.841C240.465 250.32 241.499 250.06 242.675 250.06C243.851 250.06 244.878 250.32 245.756 250.841C246.634 251.347 247.311 252.069 247.787 253.006C248.278 253.929 248.524 255.023 248.524 256.288C248.524 257.553 248.278 258.655 247.787 259.593C247.311 260.515 246.634 261.237 245.756 261.758C244.878 262.264 243.851 262.517 242.675 262.517ZM242.675 260.195C243.583 260.195 244.29 259.853 244.796 259.168C245.302 258.484 245.555 257.524 245.555 256.288C245.555 255.053 245.302 254.093 244.796 253.408C244.29 252.724 243.583 252.381 242.675 252.381C241.752 252.381 241.038 252.724 240.531 253.408C240.025 254.093 239.772 255.053 239.772 256.288C239.772 257.524 240.025 258.484 240.531 259.168C241.038 259.853 241.752 260.195 242.675 260.195ZM255.093 262.249C253.902 262.249 253.024 261.981 252.458 261.446C251.908 260.895 251.632 260.024 251.632 258.833V252.538H249.757V250.327H251.632V247.537H254.49V250.327H257.638V252.538H254.49V258.566C254.49 259.131 254.609 259.518 254.847 259.726C255.1 259.935 255.472 260.039 255.963 260.039H257.638V262.249H255.093ZM264.717 262.517C263.541 262.517 262.507 262.264 261.614 261.758C260.735 261.237 260.051 260.515 259.56 259.593C259.083 258.655 258.845 257.553 258.845 256.288C258.845 255.023 259.083 253.929 259.56 253.006C260.051 252.069 260.735 251.347 261.614 250.841C262.507 250.32 263.541 250.06 264.717 250.06C265.893 250.06 266.92 250.32 267.798 250.841C268.676 251.347 269.353 252.069 269.829 253.006C270.321 253.929 270.566 255.023 270.566 256.288C270.566 257.553 270.321 258.655 269.829 259.593C269.353 260.515 268.676 261.237 267.798 261.758C266.92 262.264 265.893 262.517 264.717 262.517ZM264.717 260.195C265.625 260.195 266.332 259.853 266.838 259.168C267.344 258.484 267.597 257.524 267.597 256.288C267.597 255.053 267.344 254.093 266.838 253.408C266.332 252.724 265.625 252.381 264.717 252.381C263.794 252.381 263.08 252.724 262.574 253.408C262.068 254.093 261.815 255.053 261.815 256.288C261.815 257.524 262.068 258.484 262.574 259.168C263.08 259.853 263.794 260.195 264.717 260.195ZM277.951 262.517C276.76 262.517 275.726 262.264 274.848 261.758C273.97 261.237 273.285 260.508 272.794 259.57C272.317 258.633 272.079 257.539 272.079 256.288C272.079 255.038 272.317 253.944 272.794 253.006C273.285 252.069 273.97 251.347 274.848 250.841C275.726 250.32 276.76 250.06 277.951 250.06C279.469 250.06 280.727 250.454 281.724 251.243C282.736 252.032 283.331 253.133 283.51 254.547L280.563 254.703C280.444 253.944 280.146 253.371 279.67 252.984C279.209 252.582 278.636 252.381 277.951 252.381C277.028 252.381 276.314 252.724 275.808 253.408C275.302 254.093 275.049 255.053 275.049 256.288C275.049 257.524 275.302 258.484 275.808 259.168C276.314 259.853 277.028 260.195 277.951 260.195C278.65 260.195 279.231 259.994 279.692 259.593C280.169 259.191 280.459 258.566 280.563 257.717L283.51 257.851C283.346 259.28 282.758 260.419 281.746 261.267C280.749 262.1 279.484 262.517 277.951 262.517ZM290.683 262.517C289.508 262.517 288.473 262.264 287.58 261.758C286.702 261.237 286.017 260.515 285.526 259.593C285.05 258.655 284.812 257.553 284.812 256.288C284.812 255.023 285.05 253.929 285.526 253.006C286.017 252.069 286.702 251.347 287.58 250.841C288.473 250.32 289.508 250.06 290.683 250.06C291.859 250.06 292.886 250.32 293.764 250.841C294.643 251.347 295.32 252.069 295.796 253.006C296.287 253.929 296.533 255.023 296.533 256.288C296.533 257.553 296.287 258.655 295.796 259.593C295.32 260.515 294.643 261.237 293.764 261.758C292.886 262.264 291.859 262.517 290.683 262.517ZM290.683 260.195C291.591 260.195 292.298 259.853 292.804 259.168C293.31 258.484 293.563 257.524 293.563 256.288C293.563 255.053 293.31 254.093 292.804 253.408C292.298 252.724 291.591 252.381 290.683 252.381C289.761 252.381 289.046 252.724 288.54 253.408C288.034 254.093 287.781 255.053 287.781 256.288C287.781 257.524 288.034 258.484 288.54 259.168C289.046 259.853 289.761 260.195 290.683 260.195ZM301.705 262.249C300.826 262.249 300.127 262.026 299.606 261.58C299.1 261.133 298.847 260.419 298.847 259.436V246.398H301.705V259.146C301.705 259.741 302.002 260.039 302.598 260.039H303.468V262.249H301.705Z" fill="white"/>
<path d="M209.68 290.062C208.968 290.062 208.347 289.928 207.817 289.659C207.288 289.389 206.867 289.02 206.554 288.552C206.25 288.074 206.072 287.523 206.02 286.898L207.192 286.819C207.288 287.505 207.544 288.035 207.961 288.408C208.386 288.782 208.968 288.968 209.706 288.968C210.348 288.968 210.847 288.847 211.203 288.604C211.568 288.352 211.75 287.987 211.75 287.51C211.75 287.223 211.681 286.971 211.542 286.754C211.412 286.529 211.156 286.325 210.774 286.142C210.4 285.951 209.845 285.765 209.107 285.582C208.395 285.4 207.826 285.2 207.401 284.983C206.984 284.766 206.68 284.501 206.489 284.189C206.307 283.876 206.215 283.49 206.215 283.03C206.215 282.509 206.337 282.053 206.58 281.662C206.832 281.263 207.188 280.955 207.648 280.738C208.108 280.512 208.655 280.399 209.289 280.399C209.966 280.399 210.548 280.529 211.034 280.79C211.52 281.042 211.907 281.389 212.193 281.832C212.48 282.274 212.658 282.778 212.727 283.342L211.555 283.42C211.477 282.856 211.247 282.396 210.865 282.04C210.491 281.675 209.957 281.493 209.263 281.493C208.69 281.493 208.234 281.632 207.895 281.91C207.557 282.179 207.387 282.535 207.387 282.978C207.387 283.264 207.453 283.503 207.583 283.694C207.722 283.876 207.965 284.041 208.312 284.189C208.659 284.328 209.159 284.48 209.81 284.645C210.583 284.836 211.195 285.066 211.646 285.335C212.106 285.595 212.432 285.899 212.623 286.246C212.823 286.594 212.922 286.989 212.922 287.432C212.922 287.97 212.783 288.439 212.506 288.838C212.228 289.229 211.846 289.533 211.36 289.75C210.873 289.958 210.313 290.062 209.68 290.062ZM214.676 289.854V282.952H215.679L215.705 284.163C215.878 283.737 216.135 283.403 216.473 283.16C216.812 282.917 217.202 282.795 217.645 282.795C218.166 282.795 218.605 282.921 218.961 283.173C219.317 283.425 219.568 283.781 219.716 284.241C219.864 283.781 220.111 283.425 220.458 283.173C220.806 282.921 221.231 282.795 221.735 282.795C222.473 282.795 223.037 283.025 223.428 283.486C223.818 283.937 224.014 284.579 224.014 285.413V289.854H222.92V285.647C222.92 284.388 222.438 283.759 221.474 283.759C220.997 283.759 220.61 283.933 220.315 284.28C220.028 284.627 219.885 285.109 219.885 285.726V289.854H218.791V285.726C218.791 285.109 218.683 284.627 218.466 284.28C218.249 283.933 217.884 283.759 217.372 283.759C216.894 283.759 216.508 283.933 216.213 284.28C215.917 284.627 215.77 285.109 215.77 285.726V289.854H214.676ZM227.832 290.01C227.12 290.01 226.551 289.845 226.126 289.515C225.709 289.185 225.501 288.725 225.501 288.135C225.501 287.544 225.674 287.08 226.022 286.741C226.369 286.403 226.92 286.164 227.676 286.025L230.124 285.569C230.124 284.415 229.577 283.837 228.483 283.837C228.006 283.837 227.628 283.946 227.35 284.163C227.072 284.371 226.881 284.675 226.777 285.074L225.618 284.983C225.748 284.332 226.061 283.807 226.556 283.407C227.059 282.999 227.702 282.795 228.483 282.795C229.369 282.795 230.046 283.047 230.515 283.551C230.983 284.046 231.218 284.731 231.218 285.608V288.46C231.218 288.747 231.339 288.89 231.583 288.89H231.856V289.854C231.752 289.871 231.613 289.88 231.439 289.88C231.023 289.88 230.71 289.797 230.502 289.633C230.302 289.459 230.18 289.177 230.137 288.786C229.963 289.142 229.664 289.437 229.238 289.672C228.813 289.897 228.344 290.01 227.832 290.01ZM227.936 289.046C228.631 289.046 229.169 288.851 229.551 288.46C229.933 288.07 230.124 287.588 230.124 287.015V286.52L227.884 286.937C227.415 287.024 227.09 287.158 226.907 287.34C226.734 287.514 226.647 287.744 226.647 288.031C226.647 288.352 226.76 288.604 226.985 288.786C227.22 288.96 227.537 289.046 227.936 289.046ZM233.092 289.854V282.952H234.055L234.094 284.228C234.329 283.377 234.876 282.952 235.735 282.952H236.413V283.993H235.748C234.707 283.993 234.186 284.558 234.186 285.686V289.854H233.092ZM239.904 289.854C239.279 289.854 238.815 289.711 238.511 289.424C238.215 289.138 238.068 288.691 238.068 288.083V283.915H237.052V282.952H238.068V281.337H239.162V282.952H240.998V283.915H239.162V288.057C239.162 288.369 239.231 288.586 239.37 288.708C239.509 288.829 239.722 288.89 240.008 288.89H240.998V289.854H239.904ZM248.429 290.01C247.787 290.01 247.227 289.863 246.749 289.567C246.28 289.272 245.916 288.855 245.655 288.317C245.395 287.77 245.265 287.132 245.265 286.403C245.265 285.673 245.395 285.04 245.655 284.501C245.916 283.963 246.28 283.546 246.749 283.251C247.227 282.947 247.787 282.795 248.429 282.795C249.228 282.795 249.888 283.004 250.409 283.42C250.93 283.828 251.247 284.419 251.359 285.192L250.213 285.27C250.135 284.81 249.936 284.458 249.614 284.215C249.293 283.963 248.898 283.837 248.429 283.837C247.795 283.837 247.3 284.067 246.945 284.527C246.589 284.979 246.411 285.604 246.411 286.403C246.411 287.202 246.589 287.831 246.945 288.291C247.3 288.743 247.795 288.968 248.429 288.968C248.898 288.968 249.293 288.838 249.614 288.578C249.936 288.317 250.135 287.926 250.213 287.406L251.359 287.484C251.247 288.248 250.93 288.86 250.409 289.32C249.888 289.78 249.228 290.01 248.429 290.01ZM255.411 290.01C254.778 290.01 254.222 289.863 253.744 289.567C253.267 289.272 252.898 288.855 252.637 288.317C252.377 287.77 252.247 287.132 252.247 286.403C252.247 285.665 252.377 285.027 252.637 284.488C252.898 283.95 253.267 283.533 253.744 283.238C254.222 282.943 254.778 282.795 255.411 282.795C256.045 282.795 256.596 282.943 257.065 283.238C257.543 283.533 257.912 283.95 258.172 284.488C258.433 285.027 258.563 285.665 258.563 286.403C258.563 287.132 258.433 287.77 258.172 288.317C257.912 288.855 257.543 289.272 257.065 289.567C256.596 289.863 256.045 290.01 255.411 290.01ZM255.411 288.968C256.045 288.968 256.536 288.743 256.883 288.291C257.239 287.831 257.417 287.202 257.417 286.403C257.417 285.604 257.239 284.979 256.883 284.527C256.536 284.067 256.045 283.837 255.411 283.837C254.778 283.837 254.283 284.067 253.927 284.527C253.571 284.979 253.393 285.604 253.393 286.403C253.393 287.202 253.571 287.831 253.927 288.291C254.283 288.743 254.778 288.968 255.411 288.968ZM260.054 289.854V282.952H261.057L261.083 284.189C261.265 283.711 261.543 283.36 261.916 283.134C262.298 282.908 262.728 282.795 263.205 282.795C263.735 282.795 264.169 282.913 264.508 283.147C264.855 283.381 265.111 283.698 265.276 284.098C265.45 284.488 265.537 284.927 265.537 285.413V289.854H264.443V285.726C264.443 285.083 264.325 284.597 264.091 284.267C263.865 283.928 263.492 283.759 262.971 283.759C262.441 283.759 262.003 283.928 261.656 284.267C261.317 284.597 261.148 285.083 261.148 285.726V289.854H260.054ZM269.626 289.854C269.001 289.854 268.537 289.711 268.233 289.424C267.937 289.138 267.79 288.691 267.79 288.083V283.915H266.774V282.952H267.79V281.337H268.884V282.952H270.72V283.915H268.884V288.057C268.884 288.369 268.953 288.586 269.092 288.708C269.231 288.829 269.444 288.89 269.73 288.89H270.72V289.854H269.626ZM272.263 289.854V282.952H273.227L273.266 284.228C273.5 283.377 274.047 282.952 274.907 282.952H275.584V283.993H274.92C273.878 283.993 273.357 284.558 273.357 285.686V289.854H272.263ZM278.539 290.01C277.827 290.01 277.258 289.845 276.833 289.515C276.416 289.185 276.207 288.725 276.207 288.135C276.207 287.544 276.381 287.08 276.728 286.741C277.076 286.403 277.627 286.164 278.382 286.025L280.831 285.569C280.831 284.415 280.284 283.837 279.19 283.837C278.712 283.837 278.335 283.946 278.057 284.163C277.779 284.371 277.588 284.675 277.484 285.074L276.325 284.983C276.455 284.332 276.767 283.807 277.262 283.407C277.766 282.999 278.408 282.795 279.19 282.795C280.075 282.795 280.753 283.047 281.221 283.551C281.69 284.046 281.925 284.731 281.925 285.608V288.46C281.925 288.747 282.046 288.89 282.289 288.89H282.563V289.854C282.459 289.871 282.32 289.88 282.146 289.88C281.729 289.88 281.417 289.797 281.208 289.633C281.009 289.459 280.887 289.177 280.844 288.786C280.67 289.142 280.371 289.437 279.945 289.672C279.52 289.897 279.051 290.01 278.539 290.01ZM278.643 289.046C279.337 289.046 279.876 288.851 280.258 288.46C280.64 288.07 280.831 287.588 280.831 287.015V286.52L278.591 286.937C278.122 287.024 277.796 287.158 277.614 287.34C277.44 287.514 277.353 287.744 277.353 288.031C277.353 288.352 277.466 288.604 277.692 288.786C277.927 288.96 278.243 289.046 278.643 289.046ZM286.469 290.01C285.826 290.01 285.266 289.863 284.789 289.567C284.32 289.272 283.955 288.855 283.695 288.317C283.434 287.77 283.304 287.132 283.304 286.403C283.304 285.673 283.434 285.04 283.695 284.501C283.955 283.963 284.32 283.546 284.789 283.251C285.266 282.947 285.826 282.795 286.469 282.795C287.268 282.795 287.927 283.004 288.448 283.42C288.969 283.828 289.286 284.419 289.399 285.192L288.253 285.27C288.175 284.81 287.975 284.458 287.654 284.215C287.333 283.963 286.938 283.837 286.469 283.837C285.835 283.837 285.34 284.067 284.984 284.527C284.628 284.979 284.45 285.604 284.45 286.403C284.45 287.202 284.628 287.831 284.984 288.291C285.34 288.743 285.835 288.968 286.469 288.968C286.938 288.968 287.333 288.838 287.654 288.578C287.975 288.317 288.175 287.926 288.253 287.406L289.399 287.484C289.286 288.248 288.969 288.86 288.448 289.32C287.927 289.78 287.268 290.01 286.469 290.01ZM293.015 289.854C292.389 289.854 291.925 289.711 291.621 289.424C291.326 289.138 291.178 288.691 291.178 288.083V283.915H290.162V282.952H291.178V281.337H292.272V282.952H294.109V283.915H292.272V288.057C292.272 288.369 292.342 288.586 292.481 288.708C292.62 288.829 292.832 288.89 293.119 288.89H294.109V289.854H293.015ZM297.898 290.01C296.952 290.01 296.231 289.793 295.736 289.359C295.241 288.916 294.968 288.356 294.916 287.679L296.062 287.601C296.131 288.018 296.3 288.352 296.57 288.604C296.847 288.847 297.29 288.968 297.898 288.968C298.367 288.968 298.727 288.895 298.979 288.747C299.239 288.591 299.37 288.343 299.37 288.005C299.37 287.822 299.326 287.67 299.239 287.549C299.161 287.427 299.001 287.323 298.758 287.236C298.514 287.141 298.158 287.05 297.69 286.963C297.047 286.841 296.544 286.689 296.179 286.507C295.814 286.325 295.558 286.103 295.411 285.843C295.263 285.582 295.189 285.27 295.189 284.905C295.189 284.289 295.415 283.785 295.866 283.394C296.327 282.995 296.973 282.795 297.807 282.795C298.415 282.795 298.909 282.904 299.291 283.121C299.682 283.329 299.977 283.603 300.177 283.941C300.377 284.28 300.498 284.636 300.542 285.009L299.396 285.087C299.361 284.757 299.222 284.467 298.979 284.215C298.745 283.963 298.345 283.837 297.781 283.837C297.286 283.837 296.921 283.933 296.687 284.124C296.452 284.315 296.335 284.558 296.335 284.853C296.335 285.192 296.444 285.443 296.661 285.608C296.878 285.765 297.29 285.895 297.898 285.999C298.575 286.112 299.105 286.255 299.487 286.429C299.869 286.602 300.134 286.819 300.281 287.08C300.438 287.332 300.516 287.64 300.516 288.005C300.516 288.638 300.268 289.133 299.773 289.489C299.287 289.837 298.662 290.01 297.898 290.01ZM307.49 289.125V286.52H304.885V285.504H307.49V282.899H308.506V285.504H311.11V286.52H308.506V289.125H307.49ZM228.329 307.854L231.663 298.607H233.174L236.508 307.854H235.284L234.359 305.223H230.478L229.554 307.854H228.329ZM230.856 304.129H233.982L232.419 299.584L230.856 304.129ZM237.712 307.854V298.607H238.832V307.854H237.712ZM244.478 307.854V298.607H250.286V299.701H245.598V302.684H250.13V303.752H245.598V306.76H250.39V307.854H244.478ZM252.169 307.854V300.952H253.171L253.198 302.189C253.38 301.711 253.658 301.36 254.031 301.134C254.413 300.908 254.843 300.795 255.32 300.795C255.85 300.795 256.284 300.913 256.623 301.147C256.97 301.381 257.226 301.698 257.391 302.098C257.565 302.488 257.651 302.927 257.651 303.413V307.854H256.558V303.726C256.558 303.083 256.44 302.597 256.206 302.267C255.98 301.928 255.607 301.759 255.086 301.759C254.556 301.759 254.118 301.928 253.771 302.267C253.432 302.597 253.263 303.083 253.263 303.726V307.854H252.169ZM262.201 309.964C261.463 309.964 260.834 309.781 260.313 309.417C259.792 309.052 259.457 308.566 259.31 307.958L260.456 307.88C260.56 308.201 260.742 308.453 261.003 308.635C261.272 308.826 261.671 308.922 262.201 308.922C262.826 308.922 263.304 308.796 263.634 308.544C263.972 308.292 264.141 307.915 264.141 307.411V306.291C263.976 306.656 263.712 306.947 263.347 307.164C262.982 307.381 262.574 307.489 262.123 307.489C261.541 307.489 261.02 307.346 260.56 307.059C260.109 306.773 259.753 306.378 259.492 305.874C259.24 305.371 259.114 304.793 259.114 304.142C259.114 303.482 259.24 302.905 259.492 302.41C259.744 301.907 260.091 301.512 260.534 301.225C260.985 300.939 261.498 300.795 262.071 300.795C262.557 300.795 262.991 300.908 263.373 301.134C263.764 301.36 264.037 301.664 264.194 302.046V300.952H265.235V307.385C265.235 308.193 264.966 308.822 264.428 309.273C263.898 309.734 263.156 309.964 262.201 309.964ZM262.175 306.447C262.765 306.447 263.238 306.243 263.594 305.835C263.95 305.419 264.133 304.854 264.141 304.142C264.159 303.43 263.985 302.87 263.62 302.462C263.256 302.046 262.774 301.837 262.175 301.837C261.567 301.837 261.094 302.046 260.755 302.462C260.425 302.87 260.26 303.43 260.26 304.142C260.26 304.854 260.43 305.419 260.768 305.835C261.116 306.243 261.585 306.447 262.175 306.447ZM267.125 307.854V300.952H268.219V307.854H267.125ZM267.099 299.871V298.594H268.245V299.871H267.099ZM270.381 307.854V300.952H271.384L271.41 302.189C271.592 301.711 271.87 301.36 272.243 301.134C272.625 300.908 273.055 300.795 273.533 300.795C274.062 300.795 274.496 300.913 274.835 301.147C275.182 301.381 275.438 301.698 275.603 302.098C275.777 302.488 275.864 302.927 275.864 303.413V307.854H274.77V303.726C274.77 303.083 274.653 302.597 274.418 302.267C274.192 301.928 273.819 301.759 273.298 301.759C272.768 301.759 272.33 301.928 271.983 302.267C271.644 302.597 271.475 303.083 271.475 303.726V307.854H270.381ZM280.491 308.01C279.84 308.01 279.276 307.863 278.798 307.567C278.329 307.272 277.965 306.855 277.704 306.317C277.453 305.77 277.327 305.132 277.327 304.403C277.327 303.673 277.453 303.04 277.704 302.501C277.965 301.963 278.325 301.546 278.785 301.251C279.254 300.947 279.805 300.795 280.439 300.795C281.038 300.795 281.568 300.939 282.028 301.225C282.488 301.503 282.844 301.911 283.096 302.449C283.356 302.988 283.487 303.643 283.487 304.416V304.741H278.473C278.516 305.479 278.711 306.035 279.059 306.408C279.415 306.782 279.892 306.968 280.491 306.968C280.943 306.968 281.312 306.864 281.598 306.656C281.893 306.439 282.098 306.157 282.21 305.809L283.382 305.9C283.2 306.517 282.853 307.025 282.341 307.424C281.837 307.815 281.221 308.01 280.491 308.01ZM278.473 303.778H282.289C282.236 303.109 282.041 302.619 281.702 302.306C281.373 301.993 280.951 301.837 280.439 301.837C279.91 301.837 279.471 302.002 279.124 302.332C278.785 302.653 278.568 303.135 278.473 303.778ZM284.968 307.854V300.952H285.932L285.971 302.228C286.206 301.377 286.753 300.952 287.612 300.952H288.289V301.993H287.625C286.583 301.993 286.062 302.558 286.062 303.686V307.854H284.968Z" fill="white" fill-opacity="0.7"/>
<line x1="258.93" y1="46.9999" x2="258.93" y2="163" stroke="white" stroke-opacity="0.1" stroke-width="1.86047"/>
<line x1="164.494" y1="312.507" x2="74.4468" y2="361.816" stroke="white" stroke-opacity="0.1" stroke-width="1.86047"/>
<line x1="351.472" y1="310.876" x2="446.449" y2="363.185" stroke="white" stroke-opacity="0.1" stroke-width="1.86047"/>
<path d="M370.5 147.333L378.317 142.393L379.068 143.582L371.251 148.522L370.5 147.333ZM373.488 152.354C373.173 151.855 373.022 151.339 373.035 150.807C373.052 150.283 373.226 149.777 373.556 149.292C373.898 148.809 374.38 148.37 375.004 147.976C375.628 147.581 376.23 147.34 376.81 147.25C377.398 147.156 377.933 147.214 378.414 147.423C378.895 147.632 379.294 147.987 379.609 148.486C379.864 148.889 380.007 149.302 380.038 149.725C380.068 150.147 379.984 150.534 379.785 150.885L382.571 149.125L383.308 150.292L375.492 155.232L374.803 154.142L375.663 153.552C375.245 153.59 374.84 153.502 374.448 153.288C374.068 153.076 373.748 152.765 373.488 152.354ZM374.696 152.022C374.895 152.338 375.145 152.555 375.446 152.673C375.746 152.791 376.088 152.811 376.47 152.734C376.853 152.656 377.257 152.483 377.683 152.214C378.123 151.936 378.457 151.643 378.683 151.335C378.917 151.023 379.042 150.708 379.057 150.391C379.079 150.069 378.991 149.75 378.791 149.434C378.494 148.964 378.074 148.706 377.531 148.659C376.995 148.607 376.408 148.783 375.77 149.187C375.138 149.586 374.727 150.04 374.537 150.551C374.346 151.062 374.399 151.552 374.696 152.022ZM377.862 159.275C377.5 158.702 377.312 158.128 377.297 157.552C377.287 156.983 377.441 156.439 377.759 155.919C378.083 155.407 378.552 154.956 379.169 154.566C379.785 154.177 380.391 153.948 380.985 153.881C381.591 153.816 382.149 153.91 382.658 154.164C383.175 154.412 383.609 154.816 383.962 155.373C384.296 155.902 384.466 156.447 384.471 157.008C384.484 157.565 384.329 158.099 384.006 158.612C383.687 159.132 383.201 159.598 382.548 160.011L382.251 160.198L379.593 155.993C379.039 156.384 378.705 156.806 378.59 157.258C378.48 157.718 378.574 158.183 378.87 158.653C379.088 158.997 379.35 159.233 379.655 159.358C379.96 159.484 380.277 159.505 380.604 159.421L381.292 160.681C380.652 160.87 380.019 160.844 379.394 160.602C378.78 160.363 378.27 159.921 377.862 159.275ZM380.474 155.436L382.352 158.409C382.85 158.043 383.14 157.649 383.223 157.227C383.31 156.812 383.226 156.403 382.971 156C382.707 155.581 382.357 155.32 381.921 155.215C381.497 155.113 381.015 155.187 380.474 155.436ZM380.411 163.016L386.268 159.315L386.942 160.383L385.407 161.414L385.394 161.223C385.817 161.048 386.204 160.978 386.555 161.013C386.906 161.048 387.22 161.163 387.497 161.357C387.781 161.547 388.021 161.796 388.215 162.105C388.494 162.545 388.624 162.971 388.607 163.382C388.602 163.797 388.477 164.184 388.232 164.544C387.999 164.907 387.67 165.223 387.244 165.492L383.479 167.871L382.741 166.704L386.154 164.547C386.499 164.329 386.766 164.109 386.954 163.888C387.143 163.666 387.246 163.431 387.264 163.183C387.282 162.936 387.206 162.676 387.034 162.404C386.774 161.993 386.427 161.745 385.993 161.66C385.56 161.575 385.082 161.697 384.561 162.026L381.148 164.183L380.411 163.016ZM385.675 171.347C385.323 170.789 385.192 170.297 385.281 169.87C385.371 169.444 385.688 169.059 386.231 168.716L391.879 165.147L392.616 166.314L387.057 169.827C386.785 169.999 386.635 170.176 386.606 170.358C386.578 170.54 386.64 170.753 386.793 170.995L387.322 171.832L386.364 172.437L385.675 171.347ZM388.981 165.73L389.939 165.125L392.221 168.736L391.263 169.341L388.981 165.73ZM387.069 173.552L392.926 169.851L393.663 171.018L387.806 174.719L387.069 173.552ZM393.76 169.293L394.927 168.556L395.692 169.767L394.525 170.504L393.76 169.293ZM390.017 178.217C389.664 177.659 389.533 177.167 389.623 176.74C389.713 176.314 390.029 175.929 390.572 175.586L396.22 172.017L396.958 173.184L391.398 176.697C391.126 176.869 390.976 177.046 390.948 177.228C390.919 177.41 390.981 177.623 391.135 177.865L391.663 178.702L390.705 179.307L390.017 178.217ZM393.323 172.6L394.28 171.995L396.562 175.606L395.605 176.211L393.323 172.6ZM389.934 181.742L390.891 181.137L391.344 181.853C391.469 182.051 391.591 182.179 391.71 182.237C391.829 182.296 391.974 182.306 392.146 182.27L392.749 182.151L392.519 181.787L396.864 176.084L397.644 177.317L394.057 181.832L399.626 180.454L400.413 181.698L392.398 183.497C391.986 183.593 391.629 183.572 391.327 183.435C391.029 183.304 390.75 183.034 390.49 182.623L389.934 181.742ZM396.99 189.252L404.806 184.312L405.558 185.501L398.182 190.162L398.435 189.124L401.238 193.561L400.148 194.25L396.99 189.252ZM401.874 197.273C401.489 196.664 401.32 196.088 401.367 195.544C401.419 195.008 401.698 194.581 402.204 194.26C402.71 193.94 403.198 193.843 403.667 193.967C404.148 194.095 404.653 194.438 405.181 194.998L406.84 196.769C407.295 196.482 407.565 196.162 407.651 195.81C407.744 195.453 407.658 195.066 407.394 194.647C407.157 194.273 406.887 194.033 406.584 193.927C406.288 193.816 405.953 193.822 405.579 193.946L404.898 192.697C405.555 192.436 406.189 192.415 406.8 192.635C407.416 192.862 407.944 193.324 408.385 194.021C408.886 194.814 409.053 195.55 408.887 196.23C408.733 196.913 408.274 197.496 407.511 197.978L405.232 199.418C405.093 199.506 405.008 199.591 404.977 199.672C404.958 199.756 404.983 199.853 405.053 199.963L405.185 200.172L404.26 200.756C404.23 200.724 404.185 200.67 404.127 200.594C404.068 200.518 404.011 200.436 403.956 200.348C403.798 200.098 403.702 199.856 403.666 199.622C403.636 199.395 403.684 199.179 403.812 198.975C403.947 198.766 404.173 198.562 404.488 198.363L404.51 198.519C404.216 198.622 403.907 198.638 403.584 198.565C403.265 198.499 402.952 198.353 402.644 198.126C402.349 197.902 402.092 197.618 401.874 197.273ZM402.917 196.876C403.14 197.228 403.396 197.487 403.686 197.653C403.983 197.815 404.296 197.889 404.627 197.875C404.957 197.861 405.276 197.757 405.585 197.562L405.959 197.326L404.543 195.817C404.255 195.507 403.991 195.324 403.751 195.27C403.523 195.219 403.3 195.263 403.079 195.402C402.83 195.56 402.689 195.767 402.656 196.024C402.635 196.283 402.722 196.567 402.917 196.876ZM403.27 202.847L404.228 202.242L404.68 202.957C404.805 203.155 404.928 203.284 405.047 203.342C405.166 203.4 405.311 203.411 405.483 203.374L406.086 203.255L405.856 202.892L410.201 197.188L410.98 198.421L407.394 202.937L412.963 201.559L413.749 202.803L405.735 204.602C405.323 204.698 404.966 204.677 404.663 204.539C404.365 204.409 404.087 204.139 403.827 203.728L403.27 202.847ZM409.76 209.752C409.398 209.179 409.21 208.605 409.195 208.029C409.185 207.46 409.339 206.916 409.657 206.396C409.981 205.884 410.45 205.433 411.067 205.043C411.684 204.654 412.289 204.425 412.883 204.358C413.489 204.293 414.047 204.387 414.556 204.641C415.073 204.889 415.507 205.293 415.86 205.851C416.194 206.379 416.364 206.924 416.369 207.485C416.382 208.042 416.227 208.577 415.904 209.089C415.585 209.609 415.099 210.075 414.446 210.488L414.149 210.676L411.491 206.47C410.937 206.861 410.603 207.283 410.488 207.735C410.378 208.195 410.472 208.66 410.768 209.13C410.986 209.475 411.248 209.71 411.553 209.835C411.859 209.961 412.175 209.982 412.502 209.898L413.19 211.158C412.55 211.347 411.917 211.321 411.292 211.079C410.678 210.84 410.168 210.398 409.76 209.752ZM412.372 205.913L414.25 208.886C414.748 208.52 415.038 208.126 415.121 207.704C415.208 207.289 415.124 206.88 414.869 206.477C414.605 206.058 414.255 205.797 413.819 205.692C413.395 205.59 412.913 205.664 412.372 205.913ZM412.309 213.493L418.166 209.792L418.84 210.86L417.316 211.885L417.286 211.765C417.866 211.511 418.353 211.429 418.748 211.519C419.148 211.615 419.48 211.872 419.745 212.291L420.1 212.852L419.054 213.513L418.699 212.952C418.513 212.658 418.31 212.442 418.09 212.305C417.869 212.167 417.627 212.109 417.364 212.131C417.106 212.161 416.819 212.276 416.503 212.475L413.046 214.66L412.309 213.493Z" fill="white"/>
<path d="M105.452 225.662L104.317 225.023L100.859 217.603L98.6088 221.597L97.4855 220.964L100.554 215.518L101.689 216.157L105.134 223.6L107.557 219.3L108.68 219.933L105.452 225.662ZM109.406 218.644L101.351 214.105L102.041 212.88L105.887 215.047L103.953 209.487L104.79 208.001L106.569 213.069L112.961 212.336L112.149 213.777L106.971 214.372L107.51 215.961L110.097 217.419L109.406 218.644ZM115.157 208.44L107.101 203.9L108.795 200.894C109.315 199.971 109.943 199.378 110.679 199.115C111.408 198.848 112.166 198.936 112.952 199.379C113.474 199.674 113.862 200.046 114.116 200.498C114.362 200.946 114.463 201.447 114.42 202C114.374 202.542 114.178 203.12 113.833 203.732L112.829 205.514L115.847 207.214L115.157 208.44ZM111.717 204.887L112.702 203.14C113.013 202.588 113.132 202.102 113.06 201.682C112.98 201.258 112.705 200.914 112.236 200.65C111.775 200.39 111.35 200.34 110.961 200.499C110.564 200.655 110.21 201.009 109.899 201.561L108.915 203.308L111.717 204.887ZM119.232 201.207L113.196 197.806L113.816 196.706L115.442 197.562L115.35 197.645C114.852 197.254 114.549 196.864 114.44 196.474C114.335 196.076 114.404 195.662 114.647 195.231L114.973 194.652L116.051 195.259L115.725 195.838C115.555 196.141 115.461 196.422 115.444 196.681C115.428 196.941 115.491 197.181 115.636 197.402C115.785 197.616 116.022 197.814 116.347 197.997L119.91 200.005L119.232 201.207ZM123.029 194.788C122.705 195.363 122.293 195.794 121.792 196.08C121.292 196.366 120.738 196.492 120.129 196.458C119.521 196.424 118.899 196.228 118.263 195.87C117.62 195.508 117.13 195.077 116.794 194.579C116.457 194.08 116.281 193.543 116.267 192.966C116.245 192.386 116.396 191.809 116.72 191.234C117.044 190.659 117.46 190.23 117.968 189.948C118.468 189.662 119.018 189.534 119.619 189.564C120.221 189.594 120.843 189.79 121.486 190.152C122.121 190.51 122.611 190.94 122.955 191.443C123.3 191.946 123.479 192.486 123.493 193.062C123.507 193.638 123.352 194.214 123.029 194.788ZM121.985 194.2C122.275 193.686 122.313 193.184 122.1 192.696C121.88 192.203 121.44 191.771 120.782 191.4C120.124 191.029 119.531 190.879 119.003 190.95C118.467 191.017 118.054 191.308 117.764 191.822C117.478 192.329 117.444 192.832 117.66 193.333C117.873 193.822 118.308 194.251 118.966 194.622C119.625 194.993 120.222 195.145 120.757 195.078C121.29 195 121.699 194.707 121.985 194.2ZM126.725 188.229C126.401 188.804 125.989 189.235 125.489 189.521C124.989 189.807 124.434 189.933 123.825 189.899C123.217 189.865 122.595 189.669 121.959 189.311C121.316 188.949 120.827 188.518 120.49 188.019C120.153 187.521 119.977 186.983 119.963 186.407C119.941 185.827 120.092 185.249 120.416 184.674C120.74 184.099 121.156 183.671 121.664 183.389C122.164 183.103 122.715 182.975 123.316 183.004C123.917 183.034 124.539 183.23 125.182 183.593C125.817 183.951 126.307 184.381 126.651 184.884C126.996 185.387 127.175 185.927 127.189 186.503C127.204 187.079 127.049 187.654 126.725 188.229ZM125.681 187.641C125.971 187.127 126.009 186.625 125.796 186.136C125.576 185.643 125.137 185.211 124.478 184.841C123.82 184.47 123.227 184.32 122.699 184.391C122.163 184.458 121.75 184.748 121.46 185.263C121.175 185.769 121.14 186.273 121.356 186.774C121.569 187.262 122.005 187.692 122.663 188.063C123.321 188.434 123.918 188.586 124.454 188.519C124.986 188.44 125.395 188.148 125.681 187.641ZM129.099 183.698L122.677 180.079C122.178 179.798 121.86 179.434 121.722 178.988C121.585 178.542 121.685 178.02 122.021 177.423L122.622 176.356L123.609 176.912L123.098 177.82C122.966 178.054 122.932 178.265 122.997 178.451C123.054 178.632 123.196 178.787 123.423 178.915L129.776 182.495L129.099 183.698ZM123.645 181.731L122.669 181.181L124.67 177.63L125.646 178.179L123.645 181.731ZM133.013 176.751L124.958 172.212L125.648 170.986L133.25 175.27L132.216 175.539L134.793 170.967L135.916 171.6L133.013 176.751ZM137.759 168.647C137.405 169.275 136.978 169.697 136.478 169.913C135.981 170.122 135.472 170.079 134.95 169.785C134.428 169.491 134.111 169.108 133.999 168.636C133.883 168.152 133.946 167.545 134.188 166.814L134.961 164.514C134.492 164.25 134.082 164.164 133.732 164.255C133.373 164.342 133.073 164.601 132.83 165.033C132.613 165.418 132.529 165.77 132.579 166.087C132.622 166.4 132.787 166.692 133.073 166.963L132.296 168.155C131.755 167.701 131.436 167.152 131.34 166.51C131.248 165.86 131.404 165.176 131.809 164.457C132.269 163.64 132.838 163.144 133.515 162.967C134.19 162.779 134.92 162.907 135.707 163.35L138.055 164.673C138.199 164.754 138.314 164.789 138.4 164.778C138.483 164.755 138.556 164.686 138.62 164.573L138.741 164.357L139.694 164.894C139.681 164.937 139.654 165.001 139.615 165.089C139.576 165.176 139.53 165.265 139.479 165.356C139.334 165.613 139.167 165.813 138.977 165.955C138.792 166.09 138.579 166.149 138.339 166.134C138.091 166.113 137.804 166.012 137.479 165.829L137.606 165.736C137.837 165.945 137.997 166.21 138.086 166.529C138.179 166.841 138.199 167.186 138.145 167.564C138.088 167.931 137.959 168.292 137.759 168.647ZM136.915 167.917C137.119 167.554 137.226 167.206 137.235 166.872C137.236 166.534 137.152 166.222 136.984 165.938C136.815 165.654 136.572 165.422 136.254 165.243L135.868 165.026L135.211 166.987C135.075 167.389 135.04 167.708 135.106 167.944C135.168 168.169 135.313 168.345 135.54 168.473C135.797 168.618 136.047 168.644 136.289 168.551C136.527 168.446 136.736 168.235 136.915 167.917ZM142.004 164.775L141.017 164.218L141.433 163.481C141.548 163.277 141.603 163.108 141.598 162.976C141.593 162.844 141.533 162.71 141.419 162.576L141.029 162.102L140.818 162.477L133.736 161.356L134.452 160.085L140.128 161.101L136.274 156.852L136.996 155.57L142.38 161.773C142.66 162.09 142.811 162.414 142.834 162.746C142.86 163.07 142.754 163.443 142.516 163.867L142.004 164.775ZM145.006 155.787C144.674 156.377 144.257 156.815 143.757 157.101C143.261 157.38 142.709 157.502 142.1 157.468C141.496 157.427 140.876 157.227 140.241 156.869C139.605 156.511 139.117 156.086 138.776 155.595C138.432 155.092 138.25 154.556 138.232 153.988C138.206 153.415 138.355 152.841 138.678 152.266C138.985 151.722 139.385 151.314 139.876 151.043C140.36 150.767 140.904 150.65 141.509 150.692C142.118 150.726 142.758 150.933 143.432 151.312L143.738 151.485L141.296 155.819C141.903 156.121 142.433 156.215 142.885 156.102C143.342 155.981 143.707 155.678 143.98 155.194C144.18 154.838 144.263 154.496 144.229 154.168C144.195 153.84 144.063 153.552 143.834 153.303L144.617 152.1C145.087 152.574 145.364 153.144 145.448 153.809C145.528 154.462 145.381 155.121 145.006 155.787ZM140.388 155.307L142.114 152.244C141.556 151.979 141.071 151.911 140.661 152.038C140.254 152.158 139.934 152.426 139.7 152.842C139.457 153.273 139.392 153.705 139.507 154.138C139.618 154.56 139.912 154.95 140.388 155.307ZM147.091 151.769L141.055 148.367L141.675 147.267L143.3 148.123L143.209 148.206C142.711 147.816 142.408 147.426 142.299 147.035C142.194 146.637 142.263 146.223 142.506 145.792L142.832 145.213L143.91 145.821L143.584 146.399C143.414 146.702 143.32 146.983 143.303 147.242C143.287 147.502 143.35 147.742 143.495 147.963C143.644 148.177 143.881 148.375 144.206 148.558L147.769 150.566L147.091 151.769Z" fill="white"/>
<path d="M204.562 422V412.753H208.248C208.908 412.753 209.476 412.866 209.954 413.092C210.431 413.318 210.8 413.639 211.061 414.056C211.321 414.472 211.452 414.967 211.452 415.54C211.452 415.957 211.356 416.33 211.165 416.66C210.983 416.99 210.735 417.255 210.423 417.455C210.119 417.646 209.793 417.754 209.446 417.78L209.381 417.663C209.963 417.663 210.414 417.798 210.735 418.067C211.057 418.327 211.243 418.74 211.295 419.304L211.543 422H210.123L209.902 419.486C209.876 419.113 209.75 418.84 209.524 418.666C209.298 418.484 208.929 418.392 208.417 418.392H205.969V422H204.562ZM205.969 417.103H208.274C208.804 417.103 209.22 416.973 209.524 416.712C209.837 416.443 209.993 416.066 209.993 415.579C209.993 415.085 209.837 414.707 209.524 414.446C209.212 414.177 208.756 414.043 208.157 414.043H205.969V417.103ZM215.945 422.156C215.268 422.156 214.682 422.009 214.187 421.713C213.701 421.418 213.323 420.997 213.054 420.45C212.793 419.903 212.663 419.265 212.663 418.536C212.663 417.806 212.793 417.173 213.054 416.634C213.323 416.087 213.701 415.666 214.187 415.371C214.673 415.067 215.246 414.915 215.906 414.915C216.531 414.915 217.082 415.063 217.56 415.358C218.037 415.645 218.406 416.061 218.667 416.608C218.936 417.155 219.07 417.815 219.07 418.588V418.939H214.096C214.13 419.617 214.308 420.125 214.63 420.463C214.959 420.802 215.402 420.971 215.958 420.971C216.366 420.971 216.705 420.876 216.974 420.685C217.243 420.494 217.43 420.237 217.534 419.916L218.966 420.007C218.784 420.65 218.424 421.171 217.885 421.57C217.356 421.961 216.709 422.156 215.945 422.156ZM214.096 417.898H217.612C217.568 417.281 217.39 416.825 217.078 416.53C216.774 416.235 216.383 416.087 215.906 416.087C215.411 416.087 215.003 416.244 214.682 416.556C214.369 416.86 214.174 417.307 214.096 417.898ZM220.469 423.953V415.072H221.772L221.811 416.556L221.654 416.478C221.828 415.966 222.114 415.579 222.514 415.319C222.913 415.05 223.373 414.915 223.894 414.915C224.572 414.915 225.127 415.085 225.561 415.423C226.004 415.753 226.33 416.192 226.538 416.739C226.755 417.286 226.864 417.885 226.864 418.536C226.864 419.187 226.755 419.786 226.538 420.333C226.33 420.88 226.004 421.323 225.561 421.661C225.127 421.991 224.572 422.156 223.894 422.156C223.547 422.156 223.221 422.095 222.918 421.974C222.614 421.852 222.353 421.683 222.136 421.466C221.928 421.24 221.78 420.975 221.693 420.672L221.85 420.515V423.953H220.469ZM223.647 420.958C224.203 420.958 224.637 420.745 224.949 420.32C225.27 419.895 225.431 419.3 225.431 418.536C225.431 417.772 225.27 417.177 224.949 416.752C224.637 416.326 224.203 416.113 223.647 416.113C223.282 416.113 222.965 416.205 222.696 416.387C222.427 416.561 222.219 416.83 222.071 417.194C221.923 417.559 221.85 418.006 221.85 418.536C221.85 419.065 221.919 419.512 222.058 419.877C222.206 420.242 222.414 420.515 222.683 420.698C222.961 420.871 223.282 420.958 223.647 420.958ZM230.544 422.156C229.85 422.156 229.294 421.926 228.877 421.466C228.469 420.997 228.265 420.35 228.265 419.526V415.072H229.646V419.174C229.646 419.799 229.754 420.259 229.971 420.554C230.188 420.85 230.518 420.997 230.961 420.997C231.465 420.997 231.855 420.837 232.133 420.515C232.42 420.185 232.563 419.725 232.563 419.135V415.072H233.944V422H232.654L232.628 420.19L232.824 420.268C232.702 420.876 232.446 421.344 232.055 421.674C231.664 421.996 231.161 422.156 230.544 422.156ZM238.21 422C237.55 422 237.063 421.848 236.751 421.544C236.438 421.24 236.282 420.767 236.282 420.125V413.444H237.663V420.02C237.663 420.342 237.732 420.563 237.871 420.685C238.01 420.806 238.223 420.867 238.509 420.867H239.499V422H238.21ZM235.227 416.205V415.072H239.499V416.205H235.227ZM242.72 422.156C242 422.156 241.422 421.991 240.988 421.661C240.563 421.331 240.35 420.867 240.35 420.268C240.35 419.669 240.528 419.204 240.884 418.874C241.249 418.536 241.809 418.293 242.564 418.145L244.947 417.689C244.947 417.151 244.821 416.752 244.57 416.491C244.318 416.222 243.945 416.087 243.45 416.087C243.007 416.087 242.66 416.187 242.408 416.387C242.156 416.578 241.982 416.864 241.887 417.246L240.467 417.155C240.598 416.461 240.919 415.914 241.431 415.514C241.952 415.115 242.625 414.915 243.45 414.915C244.387 414.915 245.099 415.167 245.585 415.671C246.08 416.166 246.328 416.864 246.328 417.767V420.463C246.328 420.628 246.354 420.745 246.406 420.815C246.467 420.876 246.562 420.906 246.692 420.906H246.94V422C246.896 422.009 246.827 422.017 246.732 422.026C246.636 422.035 246.536 422.039 246.432 422.039C246.137 422.039 245.881 421.991 245.664 421.896C245.455 421.8 245.299 421.644 245.195 421.427C245.091 421.201 245.039 420.902 245.039 420.528L245.182 420.593C245.112 420.897 244.96 421.166 244.726 421.401C244.5 421.635 244.209 421.822 243.853 421.961C243.506 422.091 243.128 422.156 242.72 422.156ZM242.942 421.062C243.359 421.062 243.714 420.984 244.01 420.828C244.305 420.663 244.535 420.437 244.7 420.151C244.865 419.864 244.947 419.539 244.947 419.174V418.731L242.916 419.122C242.499 419.2 242.204 419.326 242.03 419.499C241.865 419.664 241.783 419.877 241.783 420.138C241.783 420.433 241.883 420.663 242.082 420.828C242.291 420.984 242.577 421.062 242.942 421.062ZM250.406 422C249.746 422 249.26 421.848 248.948 421.544C248.635 421.24 248.479 420.767 248.479 420.125V413.444H249.859V420.02C249.859 420.342 249.929 420.563 250.068 420.685C250.206 420.806 250.419 420.867 250.706 420.867H251.695V422H250.406ZM247.424 416.205V415.072H251.695V416.205H247.424ZM253.015 422V415.072H254.395V422H253.015ZM252.989 414.069V412.688H254.421V414.069H252.989ZM259.072 422.156C258.412 422.156 257.834 422.009 257.34 421.713C256.845 421.418 256.463 420.997 256.194 420.45C255.924 419.903 255.79 419.265 255.79 418.536C255.79 417.798 255.924 417.16 256.194 416.621C256.463 416.083 256.845 415.666 257.34 415.371C257.834 415.067 258.412 414.915 259.072 414.915C259.732 414.915 260.309 415.067 260.804 415.371C261.299 415.666 261.681 416.083 261.95 416.621C262.219 417.16 262.354 417.798 262.354 418.536C262.354 419.265 262.219 419.903 261.95 420.45C261.681 420.997 261.299 421.418 260.804 421.713C260.309 422.009 259.732 422.156 259.072 422.156ZM259.072 420.958C259.662 420.958 260.118 420.745 260.439 420.32C260.76 419.886 260.921 419.291 260.921 418.536C260.921 417.78 260.76 417.19 260.439 416.765C260.118 416.33 259.662 416.113 259.072 416.113C258.49 416.113 258.034 416.33 257.704 416.765C257.383 417.19 257.222 417.78 257.222 418.536C257.222 419.291 257.383 419.886 257.704 420.32C258.034 420.745 258.49 420.958 259.072 420.958ZM263.749 422V415.072H265.012L265.064 416.921L264.895 416.83C264.973 416.378 265.12 416.014 265.337 415.736C265.555 415.458 265.819 415.254 266.132 415.124C266.444 414.985 266.783 414.915 267.148 414.915C267.669 414.915 268.098 415.032 268.437 415.267C268.784 415.493 269.045 415.805 269.218 416.205C269.401 416.595 269.492 417.042 269.492 417.546V422H268.111V417.963C268.111 417.555 268.068 417.212 267.981 416.934C267.894 416.656 267.751 416.443 267.551 416.296C267.352 416.148 267.091 416.074 266.77 416.074C266.284 416.074 265.889 416.235 265.585 416.556C265.281 416.877 265.129 417.346 265.129 417.963V422H263.749ZM274.753 422V412.753H280.77V414.043H276.16V416.739H280.614V417.989H276.16V420.711H280.874V422H274.753ZM282.546 422V415.072H283.809L283.861 416.921L283.692 416.83C283.77 416.378 283.918 416.014 284.135 415.736C284.352 415.458 284.617 415.254 284.929 415.124C285.242 414.985 285.58 414.915 285.945 414.915C286.466 414.915 286.896 415.032 287.234 415.267C287.582 415.493 287.842 415.805 288.016 416.205C288.198 416.595 288.289 417.042 288.289 417.546V422H286.909V417.963C286.909 417.555 286.865 417.212 286.778 416.934C286.692 416.656 286.548 416.443 286.349 416.296C286.149 416.148 285.889 416.074 285.567 416.074C285.081 416.074 284.686 416.235 284.382 416.556C284.078 416.877 283.926 417.346 283.926 417.963V422H282.546ZM292.875 424.11C292.328 424.11 291.846 424.027 291.429 423.862C291.012 423.697 290.669 423.463 290.4 423.159C290.131 422.864 289.949 422.517 289.853 422.117L291.286 422.026C291.381 422.312 291.546 422.538 291.781 422.703C292.024 422.877 292.388 422.964 292.875 422.964C293.448 422.964 293.886 422.842 294.19 422.599C294.503 422.356 294.659 421.987 294.659 421.492V420.489C294.494 420.845 294.229 421.127 293.864 421.336C293.5 421.544 293.092 421.648 292.64 421.648C292.059 421.648 291.542 421.505 291.09 421.219C290.639 420.932 290.287 420.537 290.036 420.033C289.784 419.53 289.658 418.948 289.658 418.288C289.658 417.62 289.779 417.034 290.023 416.53C290.274 416.027 290.622 415.632 291.064 415.345C291.516 415.059 292.024 414.915 292.588 414.915C293.083 414.915 293.517 415.028 293.89 415.254C294.272 415.48 294.546 415.784 294.711 416.166V415.072H296.039V421.453C296.039 422.026 295.909 422.508 295.649 422.899C295.397 423.298 295.032 423.597 294.555 423.797C294.086 424.006 293.526 424.11 292.875 424.11ZM292.862 420.476C293.4 420.476 293.83 420.281 294.151 419.89C294.481 419.499 294.65 418.961 294.659 418.275C294.668 417.824 294.598 417.437 294.45 417.116C294.303 416.786 294.09 416.535 293.812 416.361C293.543 416.179 293.226 416.087 292.862 416.087C292.297 416.087 291.859 416.287 291.546 416.686C291.242 417.077 291.09 417.607 291.09 418.275C291.09 418.952 291.247 419.491 291.559 419.89C291.881 420.281 292.315 420.476 292.862 420.476ZM297.833 422V415.072H299.213V422H297.833ZM297.807 414.069V412.688H299.239V414.069H297.807ZM301.28 422V415.072H302.543L302.595 416.921L302.426 416.83C302.504 416.378 302.651 416.014 302.868 415.736C303.085 415.458 303.35 415.254 303.663 415.124C303.975 414.985 304.314 414.915 304.679 414.915C305.2 414.915 305.629 415.032 305.968 415.267C306.315 415.493 306.576 415.805 306.749 416.205C306.932 416.595 307.023 417.042 307.023 417.546V422H305.642V417.963C305.642 417.555 305.599 417.212 305.512 416.934C305.425 416.656 305.282 416.443 305.082 416.296C304.883 416.148 304.622 416.074 304.301 416.074C303.815 416.074 303.42 416.235 303.116 416.556C302.812 416.877 302.66 417.346 302.66 417.963V422H301.28ZM311.673 422.156C310.996 422.156 310.41 422.009 309.915 421.713C309.429 421.418 309.051 420.997 308.782 420.45C308.522 419.903 308.392 419.265 308.392 418.536C308.392 417.806 308.522 417.173 308.782 416.634C309.051 416.087 309.429 415.666 309.915 415.371C310.401 415.067 310.975 414.915 311.634 414.915C312.259 414.915 312.811 415.063 313.288 415.358C313.766 415.645 314.135 416.061 314.395 416.608C314.664 417.155 314.799 417.815 314.799 418.588V418.939H309.824C309.859 419.617 310.037 420.125 310.358 420.463C310.688 420.802 311.131 420.971 311.686 420.971C312.095 420.971 312.433 420.876 312.702 420.685C312.971 420.494 313.158 420.237 313.262 419.916L314.695 420.007C314.512 420.65 314.152 421.171 313.614 421.57C313.084 421.961 312.437 422.156 311.673 422.156ZM309.824 417.898H313.34C313.297 417.281 313.119 416.825 312.806 416.53C312.503 416.235 312.112 416.087 311.634 416.087C311.139 416.087 310.731 416.244 310.41 416.556C310.098 416.86 309.902 417.307 309.824 417.898Z" fill="white"/>
<rect x="464" y="187.04" width="51.6596" height="51.6596" rx="13.6344" fill="url(#paint7_radial_1_37621)"/>
<rect x="464" y="187.04" width="51.6596" height="51.6596" rx="13.6344" stroke="url(#paint8_linear_1_37621)" stroke-width="2"/>
<path d="M499.83 211.87C499.83 208.332 499.83 206.564 498.777 205.383C498.609 205.194 498.423 205.019 498.222 204.861C496.968 203.87 495.088 203.87 491.33 203.87H488.33C484.571 203.87 482.692 203.87 481.437 204.861C481.237 205.019 481.051 205.194 480.883 205.383C479.83 206.564 479.83 208.332 479.83 211.87C479.83 215.407 479.83 217.176 480.883 218.357C481.051 218.546 481.237 218.72 481.437 218.879C482.692 219.87 484.571 219.87 488.33 219.87H489.83" stroke="white" stroke-width="1.5" stroke-linecap="round" stroke-linejoin="round"/>
<path d="M479.83 208.87H499.83" stroke="white" stroke-width="1.5" stroke-linejoin="round"/>
<path d="M493.955 220.37L493.955 214.37M495.83 214.37V212.87M495.83 221.87V220.37M493.955 217.37H497.705M497.705 217.37C498.326 217.37 498.83 217.873 498.83 218.495V219.245C498.83 219.866 498.326 220.37 497.705 220.37H492.83M497.705 217.37C498.326 217.37 498.83 216.866 498.83 216.245V215.495C498.83 214.873 498.326 214.37 497.705 214.37H492.83" stroke="white" stroke-width="1.5" stroke-linecap="round" stroke-linejoin="round"/>
<rect x="421.659" y="469.7" width="51.6596" height="51.6596" rx="13.6344" transform="rotate(180 421.659 469.7)" fill="url(#paint9_radial_1_37621)"/>
<rect x="421.659" y="469.7" width="51.6596" height="51.6596" rx="13.6344" transform="rotate(180 421.659 469.7)" stroke="url(#paint10_linear_1_37621)" stroke-width="2"/>
<path d="M385.838 447.679C386.06 444.186 386.717 441.63 387.273 440.145C387.554 439.395 388.158 438.837 388.931 438.65C393.231 437.61 398.428 437.61 402.728 438.65C403.501 438.837 404.105 439.395 404.386 440.145C404.942 441.63 405.598 444.186 405.821 447.679C405.954 449.769 404.444 450.92 402.772 451.762C401.707 452.299 400.888 450.715 400.345 449.49C400.048 448.821 399.396 448.405 398.657 448.405H393.001C392.263 448.405 391.611 448.821 391.314 449.49C390.77 450.715 389.951 452.299 388.886 451.762C387.231 450.929 385.703 449.785 385.838 447.679Z" stroke="white" stroke-width="1.5" stroke-linecap="round" stroke-linejoin="round"/>
<path d="M388.829 436.37L390.792 435.87M402.829 436.37L400.829 435.87" stroke="white" stroke-width="1.5" stroke-linecap="round" stroke-linejoin="round"/>
<path d="M392.829 444.87L391.329 443.37M391.329 443.37L389.829 441.87M391.329 443.37L389.829 444.87M391.329 443.37L392.829 441.87" stroke="white" stroke-width="1.5" stroke-linecap="round"/>
<path d="M399.817 441.87H399.826" stroke="white" stroke-width="2" stroke-linecap="round" stroke-linejoin="round"/>
<path d="M401.817 444.87H401.826" stroke="white" stroke-width="2" stroke-linecap="round" stroke-linejoin="round"/>
<rect x="81" y="410.04" width="51.6596" height="51.6596" rx="13.6344" fill="url(#paint11_radial_1_37621)"/>
<rect x="81" y="410.04" width="51.6596" height="51.6596" rx="13.6344" stroke="url(#paint12_linear_1_37621)" stroke-width="2"/>
<path d="M105.83 431.87H107.83C110.658 431.87 112.072 431.87 112.951 432.748C113.83 433.627 113.83 435.041 113.83 437.87C113.83 440.698 113.83 442.112 112.951 442.991C112.072 443.87 110.658 443.87 107.83 443.87H106.83C106.83 443.87 106.33 445.87 102.83 445.87C102.83 445.87 103.83 444.861 103.83 443.852C102.276 443.806 101.35 443.632 100.708 442.991C99.8298 442.112 99.8298 440.698 99.8298 437.87C99.8298 435.041 99.8298 433.627 100.708 432.748C101.587 431.87 103.001 431.87 105.83 431.87Z" stroke="white" stroke-width="1.5" stroke-linejoin="round"/>
<path d="M113.83 435.37H114.33C115.264 435.37 115.732 435.37 116.08 435.571C116.308 435.702 116.497 435.892 116.629 436.12C116.83 436.468 116.83 436.935 116.83 437.87C116.83 438.804 116.83 439.272 116.629 439.62C116.497 439.848 116.308 440.037 116.08 440.169C115.732 440.37 115.264 440.37 114.33 440.37H113.83" stroke="white" stroke-width="1.5" stroke-linejoin="round"/>
<path d="M99.8298 435.37H99.3298C98.3952 435.37 97.9278 435.37 97.5798 435.571C97.3517 435.702 97.1624 435.892 97.0307 436.12C96.8298 436.468 96.8298 436.935 96.8298 437.87C96.8298 438.804 96.8298 439.272 97.0307 439.62C97.1624 439.848 97.3517 440.037 97.5798 440.169C97.9278 440.37 98.3952 440.37 99.3298 440.37H99.8298" stroke="white" stroke-width="1.5" stroke-linejoin="round"/>
<path d="M108.33 427.37C108.33 428.198 107.658 428.87 106.83 428.87C106.001 428.87 105.33 428.198 105.33 427.37C105.33 426.541 106.001 425.87 106.83 425.87C107.658 425.87 108.33 426.541 108.33 427.37Z" stroke="white" stroke-width="1.5"/>
<path d="M106.83 428.87V431.87" stroke="white" stroke-width="1.5" stroke-linecap="round" stroke-linejoin="round"/>
<path d="M103.83 435.87V436.87M109.83 435.87V436.87" stroke="white" stroke-width="1.5" stroke-linecap="round" stroke-linejoin="round"/>
<path d="M104.83 440.37C104.83 440.37 105.496 440.87 106.83 440.87C108.163 440.87 108.83 440.37 108.83 440.37" stroke="white" stroke-width="1.5" stroke-linecap="round"/>
<rect x="235.96" y="8" width="51.6596" height="51.6596" rx="13.6344" fill="url(#paint13_radial_1_37621)"/>
<rect x="235.96" y="8" width="51.6596" height="51.6596" rx="13.6344" stroke="url(#paint14_linear_1_37621)" stroke-width="2"/>
<path d="M270.732 38.6652C270.076 34.7164 268.033 31.7759 266.257 30.0488C265.74 29.5462 265.481 29.2949 264.911 29.0624C264.34 28.8298 263.849 28.8298 262.868 28.8298H260.712C259.731 28.8298 259.24 28.8298 258.669 29.0624C258.098 29.2949 257.84 29.5462 257.323 30.0488C255.547 31.7759 253.503 34.7164 252.847 38.6652C252.359 41.6032 255.069 43.8298 258.098 43.8298H265.481C268.51 43.8298 271.221 41.6032 270.732 38.6652Z" stroke="white" stroke-width="1.5" stroke-linecap="round" stroke-linejoin="round"/>
<path d="M257.046 26.2727C256.84 25.9724 256.541 25.5648 257.159 25.4718C257.794 25.3763 258.453 25.8109 259.098 25.802C259.682 25.7939 259.98 25.535 260.299 25.1653C260.635 24.776 261.155 23.8298 261.79 23.8298C262.425 23.8298 262.945 24.776 263.281 25.1653C263.6 25.535 263.897 25.7939 264.481 25.802C265.127 25.8109 265.786 25.3763 266.421 25.4718C267.038 25.5648 266.739 25.9724 266.533 26.2727L265.6 27.6304C265.201 28.2112 265.002 28.5017 264.584 28.6657C264.167 28.8298 263.627 28.8298 262.548 28.8298H261.032C259.952 28.8298 259.413 28.8298 258.995 28.6657C258.578 28.5017 258.378 28.2112 257.979 27.6304L257.046 26.2727Z" stroke="white" stroke-width="1.5" stroke-linejoin="round"/>
<path d="M263.416 34.7484C263.2 33.9502 262.1 33.2301 260.779 33.7688C259.458 34.3076 259.248 36.0411 261.246 36.2253C262.149 36.3085 262.738 36.1287 263.277 36.6373C263.816 37.146 263.916 38.5606 262.538 38.9418C261.16 39.323 259.796 38.7273 259.647 37.8815M261.631 32.8225V33.5829M261.631 39.0591V39.8225" stroke="white" stroke-width="1.5" stroke-linecap="round" stroke-linejoin="round"/>
<rect x="8" y="173.04" width="51.6596" height="51.6596" rx="13.6344" fill="url(#paint15_radial_1_37621)"/>
<rect x="8" y="173.04" width="51.6596" height="51.6596" rx="13.6344" stroke="url(#paint16_linear_1_37621)" stroke-width="2"/>
<path d="M33.8298 191.87V208.87M33.8298 208.87H30.8298M33.8298 208.87H36.8298" stroke="white" stroke-width="1.5" stroke-linecap="round" stroke-linejoin="round"/>
<path d="M42.8298 199.87L40.3298 194.87L37.8298 199.87" stroke="white" stroke-width="1.5" stroke-linecap="round" stroke-linejoin="round"/>
<path d="M29.8298 199.87L27.3298 194.87L24.8298 199.87" stroke="white" stroke-width="1.5" stroke-linecap="round" stroke-linejoin="round"/>
<path d="M25.8298 194.87H26.878C28.1414 194.87 29.3673 194.341 30.3539 193.37C32.386 191.37 35.2735 191.37 37.3057 193.37C38.2923 194.341 39.5181 194.87 40.7816 194.87H41.8298" stroke="white" stroke-width="1.5" stroke-linecap="round" stroke-linejoin="round"/>
<path d="M40.3298 203.87C41.6845 203.87 42.8642 203.036 43.477 201.805C43.8078 201.14 43.9732 200.808 43.6713 200.339C43.3694 199.87 42.8698 199.87 41.8705 199.87H38.789C37.7898 199.87 37.2901 199.87 36.9883 200.339C36.6864 200.808 36.8518 201.14 37.1825 201.805C37.7954 203.036 38.9751 203.87 40.3298 203.87Z" stroke="white" stroke-width="1.5"/>
<path d="M27.3298 203.87C28.6845 203.87 29.8642 203.036 30.477 201.805C30.8078 201.14 30.9732 200.808 30.6713 200.339C30.3694 199.87 29.8698 199.87 28.8705 199.87H25.789C24.7898 199.87 24.2901 199.87 23.9883 200.339C23.6864 200.808 23.8518 201.14 24.1825 201.805C24.7954 203.036 25.9751 203.87 27.3298 203.87Z" stroke="white" stroke-width="1.5"/>
<path d="M35.3298 190.37C35.3298 191.198 34.6582 191.87 33.8298 191.87C33.0013 191.87 32.3298 191.198 32.3298 190.37C32.3298 189.541 33.0013 188.87 33.8298 188.87C34.6582 188.87 35.3298 189.541 35.3298 190.37Z" stroke="white" stroke-width="1.5"/>
<defs>
<filter id="filter0_i_1_37621" x="47" y="47.04" width="434.467" height="434.467" filterUnits="userSpaceOnUse" color-interpolation-filters="sRGB">
<feFlood flood-opacity="0" result="BackgroundImageFix"/>
<feBlend mode="normal" in="SourceGraphic" in2="BackgroundImageFix" result="shape"/>
<feColorMatrix in="SourceAlpha" type="matrix" values="0 0 0 0 0 0 0 0 0 0 0 0 0 0 0 0 0 0 127 0" result="hardAlpha"/>
<feOffset dx="6.9787" dy="6.9787"/>
<feGaussianBlur stdDeviation="9.30493"/>
<feComposite in2="hardAlpha" operator="arithmetic" k2="-1" k3="1"/>
<feColorMatrix type="matrix" values="0 0 0 0 1 0 0 0 0 1 0 0 0 0 1 0 0 0 0.03 0"/>
<feBlend mode="normal" in2="shape" result="effect1_innerShadow_1_37621"/>
</filter>
<filter id="filter1_i_1_37621" x="80.0918" y="80.1302" width="368.287" height="368.286" filterUnits="userSpaceOnUse" color-interpolation-filters="sRGB">
<feFlood flood-opacity="0" result="BackgroundImageFix"/>
<feBlend mode="normal" in="SourceGraphic" in2="BackgroundImageFix" result="shape"/>
<feColorMatrix in="SourceAlpha" type="matrix" values="0 0 0 0 0 0 0 0 0 0 0 0 0 0 0 0 0 0 127 0" result="hardAlpha"/>
<feOffset dx="6.9787" dy="6.9787"/>
<feGaussianBlur stdDeviation="9.30493"/>
<feComposite in2="hardAlpha" operator="arithmetic" k2="-1" k3="1"/>
<feColorMatrix type="matrix" values="0 0 0 0 1 0 0 0 0 1 0 0 0 0 1 0 0 0 0.03 0"/>
<feBlend mode="normal" in2="shape" result="effect1_innerShadow_1_37621"/>
</filter>
<filter id="filter2_i_1_37621" x="115.862" y="115.903" width="296.74" height="296.74" filterUnits="userSpaceOnUse" color-interpolation-filters="sRGB">
<feFlood flood-opacity="0" result="BackgroundImageFix"/>
<feBlend mode="normal" in="SourceGraphic" in2="BackgroundImageFix" result="shape"/>
<feColorMatrix in="SourceAlpha" type="matrix" values="0 0 0 0 0 0 0 0 0 0 0 0 0 0 0 0 0 0 127 0" result="hardAlpha"/>
<feOffset dx="6.9787" dy="6.9787"/>
<feGaussianBlur stdDeviation="9.30493"/>
<feComposite in2="hardAlpha" operator="arithmetic" k2="-1" k3="1"/>
<feColorMatrix type="matrix" values="0 0 0 0 1 0 0 0 0 1 0 0 0 0 1 0 0 0 0.03 0"/>
<feBlend mode="normal" in2="shape" result="effect1_innerShadow_1_37621"/>
</filter>
<filter id="filter3_di_1_37621" x="117.814" y="126.854" width="280.372" height="280.372" filterUnits="userSpaceOnUse" color-interpolation-filters="sRGB">
<feFlood flood-opacity="0" result="BackgroundImageFix"/>
<feColorMatrix in="SourceAlpha" type="matrix" values="0 0 0 0 0 0 0 0 0 0 0 0 0 0 0 0 0 0 127 0" result="hardAlpha"/>
<feOffset/>
<feGaussianBlur stdDeviation="18"/>
<feComposite in2="hardAlpha" operator="out"/>
<feColorMatrix type="matrix" values="0 0 0 0 0.0470588 0 0 0 0 1 0 0 0 0 0.521569 0 0 0 1 0"/>
<feBlend mode="normal" in2="BackgroundImageFix" result="effect1_dropShadow_1_37621"/>
<feBlend mode="normal" in="SourceGraphic" in2="effect1_dropShadow_1_37621" result="shape"/>
<feColorMatrix in="SourceAlpha" type="matrix" values="0 0 0 0 0 0 0 0 0 0 0 0 0 0 0 0 0 0 127 0" result="hardAlpha"/>
<feOffset/>
<feGaussianBlur stdDeviation="16"/>
<feComposite in2="hardAlpha" operator="arithmetic" k2="-1" k3="1"/>
<feColorMatrix type="matrix" values="0 0 0 0 0.0470588 0 0 0 0 1 0 0 0 0 0.521569 0 0 0 1 0"/>
<feBlend mode="normal" in2="shape" result="effect2_innerShadow_1_37621"/>
</filter>
<linearGradient id="paint0_linear_1_37621" x1="260.744" y1="47.04" x2="260.744" y2="474.528" gradientUnits="userSpaceOnUse">
<stop stop-color="white"/>
<stop offset="1" stop-color="white" stop-opacity="0"/>
</linearGradient>
<radialGradient id="paint1_radial_1_37621" cx="0" cy="0" r="1" gradientUnits="userSpaceOnUse" gradientTransform="translate(81.0047 71.3291) rotate(46.1535) scale(511.918)">
<stop stop-color="#272727"/>
<stop offset="1"/>
</radialGradient>
<linearGradient id="paint2_linear_1_37621" x1="262.254" y1="472.262" x2="262.254" y2="47.04" gradientUnits="userSpaceOnUse">
<stop stop-color="white"/>
<stop offset="1" stop-color="white" stop-opacity="0"/>
</linearGradient>
<linearGradient id="paint3_linear_1_37621" x1="260.746" y1="80.1302" x2="260.746" y2="441.438" gradientUnits="userSpaceOnUse">
<stop stop-color="white"/>
<stop offset="1" stop-color="white" stop-opacity="0"/>
</linearGradient>
<linearGradient id="paint4_linear_1_37621" x1="262.022" y1="439.523" x2="262.022" y2="80.1302" gradientUnits="userSpaceOnUse">
<stop stop-color="white"/>
<stop offset="1" stop-color="white" stop-opacity="0"/>
</linearGradient>
<linearGradient id="paint5_linear_1_37621" x1="260.743" y1="115.903" x2="260.743" y2="405.665" gradientUnits="userSpaceOnUse">
<stop stop-color="white"/>
<stop offset="1" stop-color="white" stop-opacity="0"/>
</linearGradient>
<linearGradient id="paint6_linear_1_37621" x1="261.767" y1="404.129" x2="261.767" y2="115.903" gradientUnits="userSpaceOnUse">
<stop stop-color="white"/>
<stop offset="1" stop-color="white" stop-opacity="0"/>
</linearGradient>
<radialGradient id="paint7_radial_1_37621" cx="0" cy="0" r="1" gradientUnits="userSpaceOnUse" gradientTransform="translate(467.268 189.089) rotate(46.1535) scale(64.2575)">
<stop stop-color="#272727"/>
<stop offset="1"/>
</radialGradient>
<linearGradient id="paint8_linear_1_37621" x1="467.878" y1="189.089" x2="511.172" y2="239.7" gradientUnits="userSpaceOnUse">
<stop/>
<stop offset="1" stop-color="#0CFF85"/>
</linearGradient>
<radialGradient id="paint9_radial_1_37621" cx="0" cy="0" r="1" gradientUnits="userSpaceOnUse" gradientTransform="translate(426.928 473.748) rotate(46.1535) scale(64.2575)">
<stop stop-color="#272727"/>
<stop offset="1"/>
</radialGradient>
<linearGradient id="paint10_linear_1_37621" x1="427.537" y1="473.748" x2="470.831" y2="524.359" gradientUnits="userSpaceOnUse">
<stop/>
<stop offset="1" stop-color="#0CFF85"/>
</linearGradient>
<radialGradient id="paint11_radial_1_37621" cx="0" cy="0" r="1" gradientUnits="userSpaceOnUse" gradientTransform="translate(84.2684 412.089) rotate(46.1535) scale(64.2575)">
<stop stop-color="#272727"/>
<stop offset="1"/>
</radialGradient>
<linearGradient id="paint12_linear_1_37621" x1="84.8781" y1="412.089" x2="128.172" y2="462.7" gradientUnits="userSpaceOnUse">
<stop/>
<stop offset="1" stop-color="#0CFF85"/>
</linearGradient>
<radialGradient id="paint13_radial_1_37621" cx="0" cy="0" r="1" gradientUnits="userSpaceOnUse" gradientTransform="translate(239.228 10.0488) rotate(46.1535) scale(64.2575)">
<stop stop-color="#272727"/>
<stop offset="1"/>
</radialGradient>
<linearGradient id="paint14_linear_1_37621" x1="239.838" y1="10.0488" x2="283.132" y2="60.6596" gradientUnits="userSpaceOnUse">
<stop/>
<stop offset="1" stop-color="#0CFF85"/>
</linearGradient>
<radialGradient id="paint15_radial_1_37621" cx="0" cy="0" r="1" gradientUnits="userSpaceOnUse" gradientTransform="translate(11.2684 175.089) rotate(46.1535) scale(64.2575)">
<stop stop-color="#272727"/>
<stop offset="1"/>
</radialGradient>
<linearGradient id="paint16_linear_1_37621" x1="11.8781" y1="175.089" x2="55.1717" y2="225.7" gradientUnits="userSpaceOnUse">
<stop/>
<stop offset="1" stop-color="#0CFF85"/>
</linearGradient>
</defs>
</svg>
