<svg width="568" height="360" viewBox="0 0 568 360" fill="none" xmlns="http://www.w3.org/2000/svg">
<rect width="568" height="360" rx="16" fill="url(#paint0_linear_2005_613)" fill-opacity="0.04"/>
<rect x="0.5" y="0.5" width="567" height="359" rx="15.5" stroke="white" stroke-opacity="0.1"/>
<g filter="url(#filter0_i_2005_613)">
<circle cx="283.57" cy="193.633" r="138.788" fill="white" fill-opacity="0.02"/>
</g>
<circle cx="283.57" cy="193.633" r="138.324" stroke="url(#paint1_linear_2005_613)" stroke-opacity="0.1" stroke-width="0.928171"/>
<g filter="url(#filter1_i_2005_613)">
<circle cx="283.5" cy="193.5" r="110.5" fill="white" fill-opacity="0.02"/>
</g>
<circle cx="283.5" cy="193.5" r="110.036" stroke="url(#paint2_linear_2005_613)" stroke-opacity="0.1" stroke-width="0.928171"/>
<path d="M204.938 190.625C204.938 181.133 212.633 173.438 222.126 173.438H344.156C353.648 173.438 361.343 181.133 361.343 190.625V260.116C361.343 269.608 353.648 277.303 344.156 277.303H286.872H222.126C212.633 277.303 204.938 269.608 204.938 260.116V190.625Z" fill="url(#paint3_linear_2005_613)" fill-opacity="0.18"/>
<rect x="204.938" y="109.845" width="156.405" height="165.858" rx="17.1873" fill="white" fill-opacity="0.04"/>
<rect x="205.368" y="110.274" width="155.545" height="164.998" rx="16.7576" stroke="white" stroke-opacity="0.1" stroke-width="0.859366"/>
<rect x="257.636" y="203.242" width="50.3901" height="50.3901" rx="13.4764" fill="url(#paint4_radial_2005_613)"/>
<rect x="257.636" y="203.242" width="50.3901" height="50.3901" rx="13.4764" stroke="url(#paint5_linear_2005_613)" stroke-width="1.17186"/>
<path d="M286.713 224.335H291.034C291.39 224.335 291.71 224.55 291.846 224.878C291.982 225.206 291.907 225.584 291.656 225.836L276.522 240.741L279.362 229.609H274.628C274.33 229.609 274.052 229.458 273.89 229.207C273.728 228.957 273.704 228.641 273.827 228.369L279.333 216.132H291.372L286.713 224.335Z" fill="white"/>
<rect x="376.538" y="89.8057" width="49.7651" height="49.7651" rx="13.4764" fill="url(#paint6_radial_2005_613)"/>
<rect x="376.538" y="89.8057" width="49.7651" height="49.7651" rx="13.4764" stroke="url(#paint7_linear_2005_613)" stroke-width="1.17186"/>
<path fill-rule="evenodd" clip-rule="evenodd" d="M393.4 113.829C393.874 113.829 394.259 114.214 394.259 114.688V115.548H395.548C396.735 115.548 397.697 116.51 397.697 117.696V118.556C397.697 119.039 397.537 119.486 397.267 119.845C397.537 120.204 397.697 120.65 397.697 121.134V121.993C397.697 123.18 396.735 124.141 395.548 124.141H394.259V125.001C394.259 125.475 393.874 125.86 393.4 125.86C392.925 125.86 392.54 125.475 392.54 125.001V124.141H389.962C389.488 124.141 389.103 123.757 389.103 123.282C389.103 122.808 389.488 122.423 389.962 122.423H390.392L390.392 117.267H389.962C389.488 117.267 389.103 116.882 389.103 116.407C389.103 115.933 389.488 115.548 389.962 115.548H392.54V114.688C392.54 114.214 392.925 113.829 393.4 113.829ZM392.111 117.267V118.985H395.548C395.786 118.985 395.978 118.793 395.978 118.556V117.696C395.978 117.459 395.786 117.267 395.548 117.267H392.111ZM395.548 120.704H392.111L392.111 122.423H395.548C395.786 122.423 395.978 122.23 395.978 121.993V121.134C395.978 120.896 395.786 120.704 395.548 120.704Z" fill="#0CFF85"/>
<path d="M403.814 103.517C404.705 103.517 405.367 103.516 405.939 103.654C407.485 104.025 408.692 105.105 409.106 106.489C409.204 106.815 409.239 107.175 409.252 107.598C409.419 107.611 409.581 107.627 409.735 107.646C410.774 107.771 411.692 108.044 412.427 108.702C413.161 109.359 413.466 110.181 413.605 111.111C413.739 111.997 413.738 113.117 413.738 114.474V116.622C413.738 117.979 413.738 119.098 413.605 119.984C413.466 120.914 413.161 121.736 412.427 122.394C411.692 123.052 410.774 123.325 409.735 123.45C408.746 123.569 407.495 123.569 405.979 123.569H399.1C399.093 123.569 399.086 123.568 399.079 123.568C399.294 123.087 399.416 122.554 399.416 121.993V121.133C399.416 120.682 399.338 120.248 399.195 119.844C399.338 119.441 399.416 119.006 399.416 118.555V117.696C399.416 115.657 397.837 113.986 395.835 113.839C395.484 112.833 394.527 112.11 393.4 112.11C392.278 112.11 391.323 112.827 390.969 113.829H389.963C389.661 113.829 389.372 113.883 389.104 113.978V106.525C389.104 104.864 390.608 103.517 392.463 103.517H403.814ZM408.296 113.542C407.189 113.542 406.29 114.44 406.29 115.547C406.29 116.655 407.188 117.553 408.296 117.553C409.403 117.553 410.301 116.655 410.301 115.547C410.301 114.44 409.403 113.543 408.296 113.542ZM392.462 105.522C391.843 105.522 391.342 105.971 391.342 106.525C391.342 107.078 391.844 107.527 392.462 107.527H405.979C406.336 107.527 406.679 107.527 407.008 107.529C406.998 107.27 406.978 107.128 406.942 107.008C406.735 106.316 406.132 105.776 405.359 105.59C405.111 105.531 404.773 105.522 403.66 105.522H392.462Z" fill="#0CFF85"/>
<rect x="141.072" y="88.0869" width="49.7651" height="49.7651" rx="13.4764" fill="url(#paint8_radial_2005_613)"/>
<rect x="141.072" y="88.0869" width="49.7651" height="49.7651" rx="13.4764" stroke="url(#paint9_linear_2005_613)" stroke-width="1.17186"/>
<path fill-rule="evenodd" clip-rule="evenodd" d="M157.934 112.11C158.408 112.11 158.793 112.495 158.793 112.97V113.829H160.082C161.269 113.829 162.23 114.791 162.23 115.977V116.837C162.23 117.321 162.071 117.767 161.801 118.126C162.071 118.485 162.23 118.931 162.23 119.415V120.274C162.23 121.461 161.269 122.423 160.082 122.423H158.793V123.282C158.793 123.757 158.408 124.141 157.934 124.141C157.459 124.141 157.074 123.757 157.074 123.282V122.423H154.496C154.021 122.423 153.637 122.038 153.637 121.563C153.637 121.089 154.021 120.704 154.496 120.704H154.926L154.926 115.548H154.496C154.021 115.548 153.637 115.163 153.637 114.688C153.637 114.214 154.021 113.829 154.496 113.829H157.074V112.97C157.074 112.495 157.459 112.11 157.934 112.11ZM156.645 115.548V117.267H160.082C160.319 117.267 160.512 117.074 160.512 116.837V115.977C160.512 115.74 160.319 115.548 160.082 115.548H156.645ZM160.082 118.985H156.645L156.645 120.704H160.082C160.319 120.704 160.512 120.512 160.512 120.274V119.415C160.512 119.178 160.319 118.985 160.082 118.985Z" fill="#0CFF85"/>
<path d="M168.348 101.798C169.239 101.798 169.9 101.798 170.473 101.935C172.019 102.306 173.226 103.386 173.64 104.77C173.738 105.097 173.773 105.456 173.786 105.879C173.953 105.893 174.114 105.909 174.269 105.927C175.308 106.052 176.226 106.325 176.96 106.983C177.695 107.641 177.999 108.462 178.139 109.392C178.272 110.278 178.272 111.398 178.272 112.755V114.903C178.272 116.26 178.272 117.379 178.139 118.265C177.999 119.195 177.695 120.018 176.96 120.675C176.226 121.333 175.308 121.606 174.269 121.731C173.279 121.85 172.028 121.85 170.512 121.85H163.633C163.626 121.85 163.62 121.849 163.613 121.849C163.828 121.368 163.95 120.835 163.95 120.274V119.415C163.95 118.964 163.872 118.529 163.729 118.125C163.872 117.722 163.95 117.287 163.95 116.836V115.977C163.95 113.938 162.37 112.267 160.369 112.121C160.018 111.114 159.06 110.391 157.934 110.391C156.812 110.391 155.856 111.109 155.502 112.11H154.497C154.195 112.11 153.906 112.164 153.637 112.259V104.806C153.637 103.145 155.141 101.798 156.997 101.798H168.348ZM172.83 111.824C171.722 111.824 170.825 112.721 170.825 113.829C170.825 114.936 171.722 115.834 172.83 115.834C173.937 115.834 174.834 114.936 174.834 113.829C174.834 112.721 173.937 111.824 172.83 111.824ZM156.996 103.803C156.377 103.803 155.875 104.252 155.875 104.806C155.876 105.36 156.377 105.808 156.996 105.808H170.512C170.87 105.808 171.213 105.808 171.542 105.81C171.531 105.551 171.512 105.409 171.476 105.29C171.269 104.598 170.666 104.057 169.893 103.872C169.644 103.812 169.307 103.803 168.194 103.803H156.996Z" fill="#0CFF85"/>
<rect x="260.524" y="25.353" width="49.7651" height="49.7651" rx="13.4764" fill="url(#paint10_radial_2005_613)"/>
<rect x="260.524" y="25.353" width="49.7651" height="49.7651" rx="13.4764" stroke="url(#paint11_linear_2005_613)" stroke-width="1.17186"/>
<path fill-rule="evenodd" clip-rule="evenodd" d="M277.386 49.3765C277.86 49.3765 278.245 49.7612 278.245 50.2358V51.0952H279.534C280.721 51.0952 281.683 52.0571 281.683 53.2436V54.103C281.683 54.5866 281.523 55.033 281.253 55.392C281.523 55.7511 281.683 56.1974 281.683 56.6811V57.5404C281.683 58.727 280.721 59.6889 279.534 59.6889H278.245V60.5482C278.245 61.0228 277.86 61.4076 277.386 61.4076C276.911 61.4076 276.526 61.0228 276.526 60.5482V59.6889H273.948C273.474 59.6889 273.089 59.3041 273.089 58.8295C273.089 58.3549 273.474 57.9701 273.948 57.9701H274.378L274.378 52.8139H273.948C273.474 52.8139 273.089 52.4292 273.089 51.9546C273.089 51.4799 273.474 51.0952 273.948 51.0952H276.526V50.2358C276.526 49.7612 276.911 49.3765 277.386 49.3765ZM276.097 52.8139V54.5327H279.534C279.771 54.5327 279.964 54.3403 279.964 54.103V53.2436C279.964 53.0063 279.771 52.8139 279.534 52.8139H276.097ZM279.534 56.2514H276.097L276.097 57.9701H279.534C279.771 57.9701 279.964 57.7778 279.964 57.5404V56.6811C279.964 56.4438 279.771 56.2514 279.534 56.2514Z" fill="#0CFF85"/>
<path d="M287.8 39.0645C288.691 39.064 289.352 39.0637 289.925 39.2012C291.471 39.572 292.678 40.6524 293.092 42.0361C293.19 42.3628 293.225 42.722 293.238 43.1455C293.405 43.1588 293.567 43.1748 293.721 43.1934C294.76 43.3184 295.678 43.5913 296.413 44.249C297.147 44.9067 297.452 45.7282 297.591 46.6582C297.724 47.5442 297.724 48.664 297.724 50.0215V52.1689C297.724 53.5261 297.724 54.6454 297.591 55.5312C297.452 56.4614 297.147 57.2836 296.413 57.9414C295.678 58.5992 294.76 58.872 293.721 58.9971C292.732 59.1162 291.481 59.1162 289.964 59.1162H283.085C283.079 59.1162 283.072 59.1152 283.065 59.1152C283.28 58.6339 283.402 58.1013 283.402 57.54V56.6807C283.402 56.2297 283.324 55.7953 283.181 55.3916C283.324 54.9879 283.402 54.5535 283.402 54.1025V53.2432C283.402 51.204 281.823 49.5334 279.821 49.3867C279.47 48.3801 278.513 47.6573 277.386 47.6572C276.264 47.6572 275.309 48.3748 274.955 49.376H273.949C273.647 49.376 273.358 49.4302 273.089 49.5254V42.0723C273.089 40.4111 274.593 39.0645 276.449 39.0645H287.8ZM292.282 49.0898C291.174 49.0898 290.276 49.9874 290.276 51.0947C290.276 52.2022 291.174 53.1006 292.282 53.1006C293.389 53.1003 294.287 52.202 294.287 51.0947C294.286 49.9876 293.389 49.0901 292.282 49.0898ZM276.448 41.0693C275.829 41.0693 275.328 41.5186 275.328 42.0723C275.328 42.6258 275.829 43.0742 276.448 43.0742H289.964C290.322 43.0742 290.665 43.0746 290.994 43.0762C290.983 42.817 290.964 42.675 290.928 42.5557C290.721 41.8638 290.118 41.3232 289.345 41.1377C289.096 41.078 288.759 41.0693 287.646 41.0693H276.448Z" fill="#0CFF85"/>
<rect x="343.882" y="284.882" width="49.7651" height="49.7651" rx="13.4764" fill="url(#paint12_radial_2005_613)"/>
<rect x="343.882" y="284.882" width="49.7651" height="49.7651" rx="13.4764" stroke="url(#paint13_linear_2005_613)" stroke-width="1.17186"/>
<path fill-rule="evenodd" clip-rule="evenodd" d="M360.744 308.905C361.219 308.905 361.603 309.29 361.603 309.765V310.624H362.893C364.079 310.624 365.041 311.586 365.041 312.772V313.632C365.041 314.115 364.881 314.562 364.611 314.921C364.881 315.28 365.041 315.726 365.041 316.21V317.069C365.041 318.256 364.079 319.218 362.893 319.218H361.603V320.077C361.603 320.552 361.219 320.936 360.744 320.936C360.269 320.936 359.885 320.552 359.885 320.077V319.218H357.307C356.832 319.218 356.447 318.833 356.447 318.358C356.447 317.884 356.832 317.499 357.307 317.499H357.736L357.736 312.343H357.307C356.832 312.343 356.447 311.958 356.447 311.483C356.447 311.009 356.832 310.624 357.307 310.624H359.885V309.765C359.885 309.29 360.269 308.905 360.744 308.905ZM359.455 312.343V314.061H362.893C363.13 314.061 363.322 313.869 363.322 313.632V312.772C363.322 312.535 363.13 312.343 362.893 312.343H359.455ZM362.893 315.78H359.455L359.455 317.499H362.893C363.13 317.499 363.322 317.307 363.322 317.069V316.21C363.322 315.973 363.13 315.78 362.893 315.78Z" fill="#0CFF85"/>
<path d="M371.159 298.593C372.049 298.593 372.711 298.593 373.284 298.73C374.829 299.101 376.036 300.181 376.451 301.565C376.548 301.892 376.584 302.251 376.596 302.674C376.763 302.688 376.925 302.704 377.08 302.722C378.118 302.847 379.036 303.12 379.771 303.778C380.505 304.436 380.81 305.257 380.95 306.187C381.083 307.073 381.083 308.193 381.083 309.55V311.698C381.083 313.055 381.083 314.174 380.95 315.06C380.81 315.99 380.506 316.812 379.771 317.47C379.036 318.128 378.118 318.401 377.08 318.526C376.09 318.645 374.839 318.645 373.323 318.645H366.444C366.437 318.645 366.43 318.644 366.423 318.644C366.638 318.163 366.76 317.63 366.76 317.069V316.209C366.76 315.759 366.682 315.324 366.54 314.92C366.682 314.517 366.76 314.082 366.76 313.631V312.772C366.76 310.733 365.181 309.062 363.179 308.916C362.828 307.909 361.871 307.186 360.745 307.186C359.622 307.186 358.667 307.904 358.313 308.905H357.307C357.006 308.905 356.717 308.959 356.448 309.054V301.601C356.448 299.94 357.952 298.593 359.807 298.593H371.159ZM375.64 308.619C374.533 308.619 373.634 309.516 373.634 310.624C373.634 311.731 374.533 312.629 375.64 312.629C376.747 312.629 377.645 311.731 377.645 310.624C377.645 309.516 376.747 308.619 375.64 308.619ZM359.806 300.598C359.188 300.598 358.686 301.047 358.686 301.601C358.686 302.155 359.188 302.603 359.806 302.603H373.323C373.681 302.603 374.024 302.603 374.352 302.605C374.342 302.346 374.322 302.204 374.287 302.084C374.08 301.393 373.476 300.852 372.704 300.667C372.455 300.607 372.117 300.598 371.004 300.598H359.806Z" fill="#0CFF85"/>
<rect x="165.993" y="284.882" width="49.7651" height="49.7651" rx="13.4764" fill="url(#paint14_radial_2005_613)"/>
<rect x="165.993" y="284.882" width="49.7651" height="49.7651" rx="13.4764" stroke="url(#paint15_linear_2005_613)" stroke-width="1.17186"/>
<path fill-rule="evenodd" clip-rule="evenodd" d="M182.855 308.905C183.33 308.905 183.715 309.29 183.715 309.765V310.624H185.004C186.19 310.624 187.152 311.586 187.152 312.772V313.632C187.152 314.115 186.992 314.562 186.723 314.921C186.992 315.28 187.152 315.726 187.152 316.21V317.069C187.152 318.256 186.19 319.218 185.004 319.218H183.715V320.077C183.715 320.552 183.33 320.936 182.855 320.936C182.381 320.936 181.996 320.552 181.996 320.077V319.218H179.418C178.943 319.218 178.559 318.833 178.559 318.358C178.559 317.884 178.943 317.499 179.418 317.499H179.848L179.848 312.343H179.418C178.943 312.343 178.559 311.958 178.559 311.483C178.559 311.009 178.943 310.624 179.418 310.624H181.996V309.765C181.996 309.29 182.381 308.905 182.855 308.905ZM181.566 312.343V314.061H185.004C185.241 314.061 185.434 313.869 185.434 313.632V312.772C185.434 312.535 185.241 312.343 185.004 312.343H181.566ZM185.004 315.78H181.566L181.566 317.499H185.004C185.241 317.499 185.434 317.307 185.434 317.069V316.21C185.434 315.973 185.241 315.78 185.004 315.78Z" fill="#0CFF85"/>
<path d="M193.27 298.593C194.161 298.593 194.822 298.593 195.395 298.73C196.94 299.101 198.148 300.181 198.562 301.565C198.66 301.892 198.695 302.251 198.708 302.674C198.875 302.688 199.036 302.704 199.191 302.722C200.23 302.847 201.148 303.12 201.882 303.778C202.617 304.436 202.921 305.257 203.061 306.187C203.194 307.073 203.194 308.193 203.194 309.55V311.698C203.194 313.055 203.194 314.174 203.061 315.06C202.921 315.99 202.617 316.812 201.882 317.47C201.148 318.128 200.23 318.401 199.191 318.526C198.201 318.645 196.95 318.645 195.434 318.645H188.555C188.548 318.645 188.541 318.644 188.535 318.644C188.75 318.163 188.872 317.63 188.872 317.069V316.209C188.872 315.759 188.794 315.324 188.651 314.92C188.794 314.517 188.872 314.082 188.872 313.631V312.772C188.871 310.733 187.292 309.062 185.291 308.916C184.94 307.909 183.982 307.186 182.856 307.186C181.734 307.186 180.778 307.904 180.424 308.905H179.418C179.117 308.905 178.828 308.959 178.559 309.054V301.601C178.559 299.94 180.063 298.593 181.918 298.593H193.27ZM197.751 308.619C196.644 308.619 195.746 309.516 195.746 310.624C195.746 311.731 196.644 312.629 197.751 312.629C198.859 312.629 199.756 311.731 199.756 310.624C199.756 309.516 198.859 308.619 197.751 308.619ZM181.917 300.598C181.299 300.598 180.797 301.047 180.797 301.601C180.798 302.155 181.299 302.603 181.917 302.603H195.434C195.792 302.603 196.135 302.603 196.463 302.605C196.453 302.346 196.434 302.204 196.398 302.084C196.191 301.393 195.588 300.852 194.815 300.667C194.566 300.607 194.229 300.598 193.116 300.598H181.917Z" fill="#0CFF85"/>
<path d="M190.725 210.65C190.725 209.123 191.963 207.885 193.49 207.885L204.159 207.885L204.159 213.416L193.49 213.416C191.963 213.416 190.725 212.178 190.725 210.65Z" stroke="url(#paint16_linear_2005_613)" stroke-width="0.79029"/>
<path d="M190.725 199.586C190.725 198.059 191.963 196.821 193.49 196.821L204.159 196.821L204.159 202.352L193.49 202.352C191.963 202.352 190.725 201.114 190.725 199.586Z" stroke="url(#paint17_linear_2005_613)" stroke-width="0.79029"/>
<path d="M190.725 188.522C190.725 186.994 191.963 185.756 193.49 185.756L204.159 185.756L204.159 191.288L193.49 191.288C191.963 191.288 190.725 190.05 190.725 188.522Z" stroke="url(#paint18_linear_2005_613)" stroke-width="0.79029"/>
<path d="M190.725 177.458C190.725 175.93 191.963 174.692 193.49 174.692L204.159 174.692L204.159 180.224L193.49 180.224C191.963 180.224 190.725 178.986 190.725 177.458Z" stroke="url(#paint19_linear_2005_613)" stroke-width="0.79029"/>
<path d="M375.173 210.65C375.173 209.123 373.935 207.885 372.407 207.885L361.738 207.885L361.738 213.416L372.407 213.416C373.935 213.416 375.173 212.178 375.173 210.65Z" stroke="url(#paint20_linear_2005_613)" stroke-width="0.79029"/>
<path d="M375.173 199.586C375.173 198.059 373.935 196.821 372.407 196.821L361.738 196.821L361.738 202.352L372.407 202.352C373.935 202.352 375.173 201.114 375.173 199.586Z" stroke="url(#paint21_linear_2005_613)" stroke-width="0.79029"/>
<path d="M375.173 188.522C375.173 186.994 373.935 185.756 372.407 185.756L361.738 185.756L361.738 191.288L372.407 191.288C373.935 191.288 375.173 190.05 375.173 188.522Z" stroke="url(#paint22_linear_2005_613)" stroke-width="0.79029"/>
<path d="M375.173 177.458C375.173 175.93 373.935 174.692 372.407 174.692L361.738 174.692L361.738 180.224L372.407 180.224C373.935 180.224 375.173 178.986 375.173 177.458Z" stroke="url(#paint23_linear_2005_613)" stroke-width="0.79029"/>
<path d="M487.16 178.895C475.751 179.28 467.192 179.232 460.637 179.244C454.065 179.256 449.551 179.329 446.175 179.944C442.837 180.551 440.652 181.681 438.718 183.799C436.751 185.955 435.027 189.153 432.679 193.973L432.188 193.733L432.668 193.994L431.43 196.282L430.579 198.013C428.642 201.9 427.044 204.712 425.212 206.718C423.086 209.048 420.664 210.276 417.132 210.918C413.638 211.554 409.017 211.625 402.474 211.637C395.913 211.649 387.374 211.6 375.986 211.985L375.949 210.872C387.358 210.486 395.916 210.535 402.471 210.523C409.044 210.511 413.557 210.437 416.933 209.823C420.271 209.215 422.457 208.086 424.39 205.967C426.357 203.812 428.082 200.614 430.429 195.793L430.434 195.783L430.44 195.773L431.681 193.477C434.016 188.683 435.805 185.341 437.896 183.049C440.022 180.719 442.444 179.491 445.976 178.848C449.47 178.212 454.091 178.141 460.634 178.129C467.195 178.117 475.735 178.166 487.123 177.782L487.16 178.895Z" fill="url(#paint24_linear_2005_613)" fill-opacity="0.4"/>
<path d="M487.16 210.874C475.751 210.488 467.192 210.537 460.637 210.525C454.065 210.513 449.551 210.439 446.175 209.825C442.837 209.217 440.651 208.088 438.718 205.969C436.751 203.814 435.027 200.616 432.679 195.795L432.188 196.036L432.668 195.775L431.43 193.487L430.579 191.755C428.642 187.869 427.043 185.057 425.212 183.05C423.086 180.72 420.664 179.493 417.132 178.85C413.638 178.214 409.017 178.143 402.474 178.131C395.913 178.119 387.374 178.168 375.986 177.784L375.949 178.897C387.358 179.282 395.916 179.234 402.471 179.246C409.044 179.258 413.557 179.331 416.933 179.946C420.271 180.553 422.457 181.683 424.39 183.801C426.357 185.957 428.082 189.155 430.429 193.975L430.434 193.986L430.44 193.996L431.681 196.292C434.016 201.086 435.805 204.427 437.896 206.719C440.022 209.049 442.444 210.277 445.976 210.92C449.47 211.556 454.092 211.627 460.634 211.639C467.195 211.651 475.735 211.602 487.123 211.987L487.16 210.874Z" fill="url(#paint25_linear_2005_613)" fill-opacity="0.4"/>
<path d="M79.4707 178.895C90.8796 179.28 99.4381 179.232 105.993 179.244C112.566 179.256 117.079 179.329 120.455 179.944C123.793 180.551 125.979 181.681 127.912 183.799C129.879 185.955 131.604 189.153 133.951 193.973L134.442 193.733L133.962 193.994L135.2 196.282L136.052 198.013C137.988 201.9 139.587 204.712 141.418 206.718C143.544 209.048 145.966 210.276 149.498 210.918C152.992 211.554 157.613 211.625 164.156 211.637C170.717 211.649 179.257 211.6 190.645 211.985L190.682 210.872C179.273 210.486 170.714 210.535 164.159 210.523C157.587 210.511 153.073 210.437 149.697 209.823C146.359 209.215 144.173 208.086 142.24 205.967C140.273 203.812 138.549 200.614 136.201 195.793L136.196 195.783L136.19 195.773L134.949 193.477C132.614 188.683 130.826 185.341 128.734 183.049C126.608 180.719 124.187 179.491 120.654 178.848C117.16 178.212 112.539 178.141 105.996 178.129C99.4352 178.117 90.8955 178.166 79.5078 177.782L79.4707 178.895Z" fill="url(#paint26_linear_2005_613)" fill-opacity="0.4"/>
<path d="M79.4707 210.874C90.8796 210.488 99.4381 210.537 105.993 210.525C112.566 210.513 117.079 210.439 120.455 209.825C123.793 209.217 125.979 208.088 127.912 205.969C129.879 203.814 131.604 200.616 133.951 195.795L134.442 196.036L133.962 195.775L135.2 193.487L136.052 191.755C137.988 187.869 139.587 185.057 141.418 183.05C143.544 180.72 145.966 179.493 149.498 178.85C152.992 178.214 157.613 178.143 164.156 178.131C170.717 178.119 179.257 178.168 190.645 177.784L190.682 178.897C179.273 179.282 170.714 179.234 164.159 179.246C157.587 179.258 153.073 179.331 149.697 179.946C146.359 180.553 144.173 181.683 142.24 183.801C140.273 185.957 138.549 189.155 136.201 193.975L136.196 193.986L136.19 193.996L134.949 196.292C132.614 201.086 130.826 204.427 128.734 206.719C126.608 209.049 124.187 210.277 120.654 210.92C117.16 211.556 112.539 211.627 105.996 211.639C99.4352 211.651 90.8955 211.602 79.5078 211.987L79.4707 210.874Z" fill="url(#paint27_linear_2005_613)" fill-opacity="0.4"/>
<path d="M238.777 147.344V137.582H240.812L243.713 145.598L246.614 137.582H248.649V147.344H247.164V140.194L244.538 147.33H242.888L240.262 140.194V147.344H238.777ZM251.136 149.407V148.21H252.03C252.277 148.21 252.461 148.174 252.58 148.1C252.699 148.027 252.791 147.903 252.855 147.729L253.089 147.124H252.635L249.995 140.029H251.535L253.542 145.777L255.454 140.029H257.007L254.092 148.197C253.946 148.618 253.726 148.925 253.432 149.118C253.148 149.31 252.75 149.407 252.236 149.407H251.136ZM263.798 147.344V138.943H260.801V137.582H268.281V138.943H265.283V147.344H263.798ZM268.824 147.344V140.029H270.158L270.199 141.418C270.337 140.941 270.547 140.593 270.832 140.373C271.125 140.144 271.496 140.029 271.945 140.029H272.647V141.336H271.945C271.386 141.336 270.969 141.473 270.694 141.748C270.419 142.023 270.282 142.449 270.282 143.027V147.344H268.824ZM276.4 147.509C275.658 147.509 275.071 147.266 274.64 146.78C274.209 146.295 273.994 145.612 273.994 144.732V140.029H275.451V144.361C275.451 145.021 275.566 145.506 275.795 145.818C276.024 146.13 276.372 146.285 276.84 146.285C277.372 146.285 277.784 146.116 278.077 145.777C278.38 145.428 278.531 144.943 278.531 144.319V140.029H279.989V147.344H278.627L278.614 146.148C278.22 147.055 277.482 147.509 276.4 147.509ZM284.735 147.509C283.671 147.509 282.874 147.28 282.342 146.822C281.811 146.354 281.517 145.758 281.462 145.034L282.961 144.966C283.025 145.369 283.19 145.69 283.456 145.928C283.722 146.166 284.148 146.285 284.735 146.285C285.193 146.285 285.541 146.212 285.78 146.066C286.027 145.919 286.151 145.685 286.151 145.364C286.151 145.181 286.11 145.03 286.027 144.911C285.945 144.791 285.784 144.691 285.546 144.608C285.308 144.516 284.955 144.429 284.487 144.347C283.772 144.209 283.213 144.049 282.81 143.866C282.416 143.673 282.136 143.439 281.971 143.164C281.806 142.88 281.724 142.536 281.724 142.133C281.724 141.473 281.976 140.932 282.48 140.511C282.984 140.08 283.713 139.864 284.666 139.864C285.335 139.864 285.885 139.979 286.316 140.208C286.747 140.428 287.072 140.721 287.292 141.088C287.512 141.455 287.645 141.849 287.691 142.271L286.192 142.353C286.165 142.005 286.032 141.707 285.794 141.459C285.564 141.212 285.179 141.088 284.639 141.088C284.162 141.088 283.809 141.18 283.58 141.363C283.351 141.546 283.236 141.785 283.236 142.078C283.236 142.399 283.341 142.642 283.552 142.807C283.772 142.963 284.18 143.086 284.776 143.178C285.519 143.297 286.096 143.453 286.509 143.646C286.93 143.829 287.228 144.063 287.402 144.347C287.576 144.622 287.663 144.956 287.663 145.351C287.663 146.038 287.393 146.57 286.852 146.945C286.311 147.321 285.606 147.509 284.735 147.509ZM291.703 147.344C291.007 147.344 290.493 147.188 290.163 146.877C289.833 146.556 289.668 146.052 289.668 145.364V141.226H288.555V140.029H289.668V138.311H291.126V140.029H293.065V141.226H291.126V145.254C291.126 145.593 291.199 145.827 291.346 145.956C291.493 146.084 291.717 146.148 292.02 146.148H293.065V147.344H291.703ZM297.155 147.509C296.092 147.509 295.294 147.28 294.763 146.822C294.231 146.354 293.938 145.758 293.883 145.034L295.382 144.966C295.446 145.369 295.611 145.69 295.877 145.928C296.142 146.166 296.569 146.285 297.155 146.285C297.614 146.285 297.962 146.212 298.2 146.066C298.448 145.919 298.572 145.685 298.572 145.364C298.572 145.181 298.53 145.03 298.448 144.911C298.365 144.791 298.205 144.691 297.967 144.608C297.728 144.516 297.375 144.429 296.908 144.347C296.193 144.209 295.634 144.049 295.23 143.866C294.836 143.673 294.557 143.439 294.392 143.164C294.227 142.88 294.144 142.536 294.144 142.133C294.144 141.473 294.396 140.932 294.9 140.511C295.404 140.08 296.133 139.864 297.087 139.864C297.756 139.864 298.306 139.979 298.737 140.208C299.167 140.428 299.493 140.721 299.713 141.088C299.933 141.455 300.066 141.849 300.112 142.271L298.613 142.353C298.585 142.005 298.452 141.707 298.214 141.459C297.985 141.212 297.6 141.088 297.059 141.088C296.582 141.088 296.229 141.18 296 141.363C295.771 141.546 295.657 141.785 295.657 142.078C295.657 142.399 295.762 142.642 295.973 142.807C296.193 142.963 296.601 143.086 297.197 143.178C297.939 143.297 298.517 143.453 298.929 143.646C299.351 143.829 299.649 144.063 299.823 144.347C299.997 144.622 300.084 144.956 300.084 145.351C300.084 146.038 299.814 146.57 299.273 146.945C298.732 147.321 298.026 147.509 297.155 147.509ZM304.599 147.509C303.902 147.509 303.292 147.353 302.77 147.042C302.247 146.721 301.844 146.276 301.56 145.708C301.276 145.131 301.134 144.457 301.134 143.687C301.134 142.917 301.276 142.248 301.56 141.679C301.844 141.102 302.247 140.657 302.77 140.346C303.292 140.025 303.902 139.864 304.599 139.864C305.488 139.864 306.226 140.098 306.812 140.566C307.399 141.024 307.752 141.675 307.871 142.518L306.345 142.601C306.272 142.124 306.079 141.762 305.767 141.514C305.456 141.258 305.066 141.129 304.599 141.129C303.985 141.129 303.503 141.358 303.155 141.817C302.816 142.266 302.646 142.889 302.646 143.687C302.646 144.493 302.816 145.121 303.155 145.571C303.503 146.02 303.985 146.244 304.599 146.244C305.066 146.244 305.456 146.116 305.767 145.859C306.079 145.593 306.272 145.195 306.345 144.663L307.871 144.746C307.752 145.589 307.399 146.263 306.812 146.767C306.235 147.262 305.497 147.509 304.599 147.509ZM312.212 147.509C311.515 147.509 310.906 147.353 310.383 147.042C309.861 146.721 309.458 146.276 309.173 145.708C308.889 145.14 308.747 144.466 308.747 143.687C308.747 142.908 308.889 142.234 309.173 141.666C309.458 141.097 309.861 140.657 310.383 140.346C310.906 140.025 311.515 139.864 312.212 139.864C312.909 139.864 313.518 140.025 314.041 140.346C314.563 140.657 314.967 141.097 315.251 141.666C315.535 142.234 315.677 142.908 315.677 143.687C315.677 144.466 315.535 145.14 315.251 145.708C314.967 146.276 314.563 146.721 314.041 147.042C313.518 147.353 312.909 147.509 312.212 147.509ZM312.212 146.244C312.835 146.244 313.317 146.02 313.656 145.571C313.995 145.121 314.165 144.493 314.165 143.687C314.165 142.889 313.995 142.266 313.656 141.817C313.317 141.358 312.835 141.129 312.212 141.129C311.598 141.129 311.117 141.358 310.768 141.817C310.429 142.266 310.26 142.889 310.26 143.687C310.26 144.493 310.429 145.121 310.768 145.571C311.117 146.02 311.598 146.244 312.212 146.244ZM317.15 147.344V140.029H318.484L318.525 141.418C318.663 140.941 318.873 140.593 319.158 140.373C319.451 140.144 319.822 140.029 320.271 140.029H320.973V141.336H320.271C319.712 141.336 319.295 141.473 319.02 141.748C318.745 142.023 318.608 142.449 318.608 143.027V147.344H317.15ZM325.022 147.509C324.307 147.509 323.688 147.353 323.166 147.042C322.653 146.721 322.254 146.276 321.97 145.708C321.695 145.131 321.557 144.457 321.557 143.687C321.557 142.917 321.695 142.248 321.97 141.679C322.254 141.102 322.653 140.657 323.166 140.346C323.679 140.025 324.284 139.864 324.981 139.864C325.641 139.864 326.223 140.02 326.727 140.332C327.231 140.634 327.621 141.074 327.896 141.652C328.18 142.229 328.322 142.926 328.322 143.742V144.113H323.07C323.106 144.828 323.294 145.364 323.633 145.722C323.982 146.079 324.449 146.258 325.036 146.258C325.467 146.258 325.82 146.162 326.095 145.969C326.379 145.768 326.58 145.493 326.7 145.144L328.212 145.241C328.02 145.928 327.639 146.478 327.071 146.89C326.512 147.303 325.829 147.509 325.022 147.509ZM323.07 143.013H326.782C326.736 142.362 326.548 141.881 326.218 141.569C325.888 141.258 325.476 141.102 324.981 141.102C324.458 141.102 324.028 141.267 323.688 141.597C323.358 141.918 323.152 142.39 323.07 143.013Z" fill="white"/>
<line x1="252.203" y1="164.844" x2="315.796" y2="164.844" stroke="white" stroke-opacity="0.4" stroke-width="3.43747"/>
<line x1="238.454" y1="178.594" x2="329.546" y2="178.594" stroke="white" stroke-opacity="0.4" stroke-width="3.43747"/>
<path d="M67.119 175.648C67.585 175.386 68.1539 175.386 68.6199 175.648L84.9479 184.833C85.4299 185.104 85.7282 185.614 85.7282 186.167C85.7282 186.72 85.4299 187.23 84.9479 187.501L68.6199 196.686C68.1539 196.948 67.585 196.948 67.119 196.686L50.791 187.501C50.309 187.23 50.0107 186.72 50.0107 186.167C50.0107 185.614 50.309 185.104 50.791 184.833L67.119 175.648Z" fill="white"/>
<path fill-rule="evenodd" clip-rule="evenodd" d="M53.9789 203.177V186.479H50.0103V204.337C50.0103 205.054 50.3969 205.715 51.0217 206.067L66.8961 214.996C67.5002 215.336 68.2377 215.336 68.8418 214.996L84.7162 206.067C85.341 205.715 85.7277 205.054 85.7277 204.337V186.479H81.7591V203.177L69.8533 209.874V195.408H65.8847V209.874L53.9789 203.177Z" fill="white"/>
<path d="M499.38 175.648C499.846 175.386 500.415 175.386 500.881 175.648L517.209 184.833C517.691 185.104 517.989 185.614 517.989 186.167C517.989 186.72 517.691 187.23 517.209 187.501L500.881 196.686C500.415 196.948 499.846 196.948 499.38 196.686L483.052 187.501C482.57 187.23 482.272 186.72 482.272 186.167C482.272 185.614 482.57 185.104 483.052 184.833L499.38 175.648Z" fill="white"/>
<path fill-rule="evenodd" clip-rule="evenodd" d="M486.24 203.177V186.479H482.271V204.337C482.271 205.054 482.658 205.715 483.283 206.067L499.157 214.996C499.761 215.336 500.499 215.336 501.103 214.996L516.977 206.067C517.602 205.715 517.989 205.054 517.989 204.337V186.479H514.02V203.177L502.114 209.874V195.408H498.146V209.874L486.24 203.177Z" fill="white"/>
<defs>
<filter id="filter0_i_2005_613" x="144.783" y="54.8452" width="283.144" height="283.144" filterUnits="userSpaceOnUse" color-interpolation-filters="sRGB">
<feFlood flood-opacity="0" result="BackgroundImageFix"/>
<feBlend mode="normal" in="SourceGraphic" in2="BackgroundImageFix" result="shape"/>
<feColorMatrix in="SourceAlpha" type="matrix" values="0 0 0 0 0 0 0 0 0 0 0 0 0 0 0 0 0 0 127 0" result="hardAlpha"/>
<feOffset dx="5.56902" dy="5.56902"/>
<feGaussianBlur stdDeviation="7.42536"/>
<feComposite in2="hardAlpha" operator="arithmetic" k2="-1" k3="1"/>
<feColorMatrix type="matrix" values="0 0 0 0 1 0 0 0 0 1 0 0 0 0 1 0 0 0 0.03 0"/>
<feBlend mode="normal" in2="shape" result="effect1_innerShadow_2005_613"/>
</filter>
<filter id="filter1_i_2005_613" x="173" y="83" width="226.569" height="226.569" filterUnits="userSpaceOnUse" color-interpolation-filters="sRGB">
<feFlood flood-opacity="0" result="BackgroundImageFix"/>
<feBlend mode="normal" in="SourceGraphic" in2="BackgroundImageFix" result="shape"/>
<feColorMatrix in="SourceAlpha" type="matrix" values="0 0 0 0 0 0 0 0 0 0 0 0 0 0 0 0 0 0 127 0" result="hardAlpha"/>
<feOffset dx="5.56902" dy="5.56902"/>
<feGaussianBlur stdDeviation="7.42536"/>
<feComposite in2="hardAlpha" operator="arithmetic" k2="-1" k3="1"/>
<feColorMatrix type="matrix" values="0 0 0 0 1 0 0 0 0 1 0 0 0 0 1 0 0 0 0.03 0"/>
<feBlend mode="normal" in2="shape" result="effect1_innerShadow_2005_613"/>
</filter>
<linearGradient id="paint0_linear_2005_613" x1="0.42117" y1="0.223332" x2="572.136" y2="362.966" gradientUnits="userSpaceOnUse">
<stop stop-color="#0CFF85"/>
<stop offset="1"/>
</linearGradient>
<linearGradient id="paint1_linear_2005_613" x1="137.804" y1="79.9451" x2="410.546" y2="297.871" gradientUnits="userSpaceOnUse">
<stop stop-color="white"/>
<stop offset="1" stop-color="white" stop-opacity="0"/>
</linearGradient>
<linearGradient id="paint2_linear_2005_613" x1="167.443" y1="102.984" x2="384.596" y2="276.493" gradientUnits="userSpaceOnUse">
<stop stop-color="white"/>
<stop offset="1" stop-color="white" stop-opacity="0"/>
</linearGradient>
<linearGradient id="paint3_linear_2005_613" x1="283.141" y1="173.437" x2="283.141" y2="324.834" gradientUnits="userSpaceOnUse">
<stop stop-color="#0CFF85" stop-opacity="0"/>
<stop offset="0.637475" stop-color="#0CFF85"/>
<stop offset="1" stop-color="#0CFF85" stop-opacity="0"/>
</linearGradient>
<radialGradient id="paint4_radial_2005_613" cx="0" cy="0" r="1" gradientUnits="userSpaceOnUse" gradientTransform="translate(261.152 205.586) rotate(46.1535) scale(61.7456)">
<stop stop-color="#272727"/>
<stop offset="1"/>
</radialGradient>
<linearGradient id="paint5_linear_2005_613" x1="261.738" y1="205.586" x2="303.339" y2="254.218" gradientUnits="userSpaceOnUse">
<stop/>
<stop offset="1" stop-color="#2D2D2D"/>
</linearGradient>
<radialGradient id="paint6_radial_2005_613" cx="0" cy="0" r="1" gradientUnits="userSpaceOnUse" gradientTransform="translate(380.004 92.1139) rotate(46.1535) scale(60.9972)">
<stop stop-color="#272727"/>
<stop offset="1"/>
</radialGradient>
<linearGradient id="paint7_linear_2005_613" x1="380.583" y1="92.1139" x2="421.68" y2="140.157" gradientUnits="userSpaceOnUse">
<stop/>
<stop offset="1" stop-color="#2D2D2D"/>
</linearGradient>
<radialGradient id="paint8_radial_2005_613" cx="0" cy="0" r="1" gradientUnits="userSpaceOnUse" gradientTransform="translate(144.538 90.3951) rotate(46.1535) scale(60.9972)">
<stop stop-color="#272727"/>
<stop offset="1"/>
</radialGradient>
<linearGradient id="paint9_linear_2005_613" x1="145.116" y1="90.3951" x2="186.213" y2="138.438" gradientUnits="userSpaceOnUse">
<stop/>
<stop offset="1" stop-color="#2D2D2D"/>
</linearGradient>
<radialGradient id="paint10_radial_2005_613" cx="0" cy="0" r="1" gradientUnits="userSpaceOnUse" gradientTransform="translate(263.99 27.6612) rotate(46.1535) scale(60.9972)">
<stop stop-color="#272727"/>
<stop offset="1"/>
</radialGradient>
<linearGradient id="paint11_linear_2005_613" x1="264.568" y1="27.6612" x2="305.665" y2="75.7041" gradientUnits="userSpaceOnUse">
<stop/>
<stop offset="1" stop-color="#2D2D2D"/>
</linearGradient>
<radialGradient id="paint12_radial_2005_613" cx="0" cy="0" r="1" gradientUnits="userSpaceOnUse" gradientTransform="translate(347.348 287.19) rotate(46.1535) scale(60.9972)">
<stop stop-color="#272727"/>
<stop offset="1"/>
</radialGradient>
<linearGradient id="paint13_linear_2005_613" x1="347.927" y1="287.19" x2="389.024" y2="335.233" gradientUnits="userSpaceOnUse">
<stop/>
<stop offset="1" stop-color="#2D2D2D"/>
</linearGradient>
<radialGradient id="paint14_radial_2005_613" cx="0" cy="0" r="1" gradientUnits="userSpaceOnUse" gradientTransform="translate(169.459 287.19) rotate(46.1535) scale(60.9972)">
<stop stop-color="#272727"/>
<stop offset="1"/>
</radialGradient>
<linearGradient id="paint15_linear_2005_613" x1="170.038" y1="287.19" x2="211.135" y2="335.233" gradientUnits="userSpaceOnUse">
<stop/>
<stop offset="1" stop-color="#2D2D2D"/>
</linearGradient>
<linearGradient id="paint16_linear_2005_613" x1="190.329" y1="210.65" x2="204.554" y2="210.65" gradientUnits="userSpaceOnUse">
<stop stop-color="white" stop-opacity="0.6"/>
<stop offset="1" stop-color="white" stop-opacity="0"/>
</linearGradient>
<linearGradient id="paint17_linear_2005_613" x1="190.329" y1="199.586" x2="204.554" y2="199.586" gradientUnits="userSpaceOnUse">
<stop stop-color="white" stop-opacity="0.6"/>
<stop offset="1" stop-color="white" stop-opacity="0"/>
</linearGradient>
<linearGradient id="paint18_linear_2005_613" x1="190.329" y1="188.522" x2="204.554" y2="188.522" gradientUnits="userSpaceOnUse">
<stop stop-color="white" stop-opacity="0.6"/>
<stop offset="1" stop-color="white" stop-opacity="0"/>
</linearGradient>
<linearGradient id="paint19_linear_2005_613" x1="190.329" y1="177.458" x2="204.554" y2="177.458" gradientUnits="userSpaceOnUse">
<stop stop-color="white" stop-opacity="0.6"/>
<stop offset="1" stop-color="white" stop-opacity="0"/>
</linearGradient>
<linearGradient id="paint20_linear_2005_613" x1="375.568" y1="210.65" x2="361.343" y2="210.65" gradientUnits="userSpaceOnUse">
<stop stop-color="white" stop-opacity="0.6"/>
<stop offset="1" stop-color="white" stop-opacity="0"/>
</linearGradient>
<linearGradient id="paint21_linear_2005_613" x1="375.568" y1="199.586" x2="361.343" y2="199.586" gradientUnits="userSpaceOnUse">
<stop stop-color="white" stop-opacity="0.6"/>
<stop offset="1" stop-color="white" stop-opacity="0"/>
</linearGradient>
<linearGradient id="paint22_linear_2005_613" x1="375.568" y1="188.522" x2="361.343" y2="188.522" gradientUnits="userSpaceOnUse">
<stop stop-color="white" stop-opacity="0.6"/>
<stop offset="1" stop-color="white" stop-opacity="0"/>
</linearGradient>
<linearGradient id="paint23_linear_2005_613" x1="375.568" y1="177.458" x2="361.343" y2="177.458" gradientUnits="userSpaceOnUse">
<stop stop-color="white" stop-opacity="0.6"/>
<stop offset="1" stop-color="white" stop-opacity="0"/>
</linearGradient>
<linearGradient id="paint24_linear_2005_613" x1="375.949" y1="194.883" x2="487.16" y2="194.883" gradientUnits="userSpaceOnUse">
<stop stop-color="white" stop-opacity="0"/>
<stop offset="1" stop-color="white"/>
</linearGradient>
<linearGradient id="paint25_linear_2005_613" x1="375.949" y1="194.885" x2="487.16" y2="194.885" gradientUnits="userSpaceOnUse">
<stop stop-color="white" stop-opacity="0"/>
<stop offset="1" stop-color="white"/>
</linearGradient>
<linearGradient id="paint26_linear_2005_613" x1="190.682" y1="194.883" x2="79.4707" y2="194.883" gradientUnits="userSpaceOnUse">
<stop stop-color="white" stop-opacity="0"/>
<stop offset="1" stop-color="white"/>
</linearGradient>
<linearGradient id="paint27_linear_2005_613" x1="190.682" y1="194.885" x2="79.4707" y2="194.885" gradientUnits="userSpaceOnUse">
<stop stop-color="white" stop-opacity="0"/>
<stop offset="1" stop-color="white"/>
</linearGradient>
</defs>
</svg>
