<svg width="17" height="17" viewBox="0 0 17 17" fill="none" xmlns="http://www.w3.org/2000/svg">
<path d="M0 8.38358V16.3284H4.02007V7.72854V5.33008H0V8.38358Z" fill="#262626"/>
<path d="M12.5371 5.38059C10.8944 5.38059 9.78607 6.08858 9.3227 6.77123H9.17691V5.33008H6.21875V7.5773V16.3284H9.55616V10.9937C9.55616 9.56245 9.69391 8.18228 11.4477 8.18228C13.2106 8.18228 13.1971 9.81442 13.1971 11.0943V16.3284H16.5345V10.4091C16.5345 9.84454 16.5512 9.27543 16.4909 8.79158C16.239 6.71586 15.3387 5.38059 12.5371 5.38059Z" fill="#262626"/>
<path d="M2.11789 0C1.05985 0 0.203125 0.856578 0.203125 1.91477C0.203125 2.97303 1.05985 3.82938 2.11789 3.82938C3.176 3.82938 4.03235 2.97303 4.03235 1.91477C4.03228 0.856578 3.17593 0 2.11789 0Z" fill="#262626"/>
</svg>
