<svg width="53" height="52" viewBox="0 0 53 52" fill="none" xmlns="http://www.w3.org/2000/svg">
<g filter="url(#filter0_d_1_36882)">
<rect x="4.5" y="4" width="44" height="44" rx="12" fill="url(#paint0_radial_1_36882)" shape-rendering="crispEdges"/>
<rect x="5" y="4.5" width="43" height="43" rx="11.5" stroke="url(#paint1_linear_1_36882)" shape-rendering="crispEdges"/>
<path d="M30.5 28C30.5 28.8284 31.1716 29.5 32 29.5C32.8284 29.5 33.5 28.8284 33.5 28C33.5 27.1716 32.8284 26.5 32 26.5C31.1716 26.5 30.5 27.1716 30.5 28Z" stroke="#0CFF85" stroke-width="1.5"/>
<path d="M24.5 21H30.5C33.3284 21 34.7426 21 35.6213 21.8787C36.5 22.7574 36.5 24.1716 36.5 27V29C36.5 31.8284 36.5 33.2426 35.6213 34.1213C34.7426 35 33.3284 35 30.5 35H24.5C20.7288 35 18.8431 35 17.6716 33.8284C16.5 32.6569 16.5 30.7712 16.5 27V25C16.5 21.2288 16.5 19.3431 17.6716 18.1716C18.8431 17 20.7288 17 24.5 17H28.5C29.43 17 29.895 17 30.2765 17.1022C31.3117 17.3796 32.1204 18.1883 32.3978 19.2235C32.5 19.605 32.5 20.07 32.5 21" stroke="#0CFF85" stroke-width="1.5" stroke-linecap="round"/>
</g>
<defs>
<filter id="filter0_d_1_36882" x="0.5" y="0" width="52" height="52" filterUnits="userSpaceOnUse" color-interpolation-filters="sRGB">
<feFlood flood-opacity="0" result="BackgroundImageFix"/>
<feColorMatrix in="SourceAlpha" type="matrix" values="0 0 0 0 0 0 0 0 0 0 0 0 0 0 0 0 0 0 127 0" result="hardAlpha"/>
<feOffset/>
<feGaussianBlur stdDeviation="2"/>
<feComposite in2="hardAlpha" operator="out"/>
<feColorMatrix type="matrix" values="0 0 0 0 0.0470588 0 0 0 0 1 0 0 0 0 0.521569 0 0 0 1 0"/>
<feBlend mode="normal" in2="BackgroundImageFix" result="effect1_dropShadow_1_36882"/>
<feBlend mode="normal" in="SourceGraphic" in2="effect1_dropShadow_1_36882" result="shape"/>
</filter>
<radialGradient id="paint0_radial_1_36882" cx="0" cy="0" r="1" gradientUnits="userSpaceOnUse" gradientTransform="translate(8 6.5) rotate(46.1535) scale(52.6901)">
<stop stop-color="#272727"/>
<stop offset="1"/>
</radialGradient>
<linearGradient id="paint1_linear_1_36882" x1="8.5" y1="6.5" x2="44" y2="48" gradientUnits="userSpaceOnUse">
<stop/>
<stop offset="1" stop-color="#2D2D2D"/>
</linearGradient>
</defs>
</svg>
